<svg preserveAspectRatio="none" width="100%" height="100%" overflow="visible" style="display: block;" viewBox="0 0 28 28" fill="none" xmlns="http://www.w3.org/2000/svg">
<g id="Icon">
<path id="Vector" d="M9.33333 25.6667C9.97767 25.6667 10.5 25.1443 10.5 24.5C10.5 23.8557 9.97767 23.3333 9.33333 23.3333C8.689 23.3333 8.16667 23.8557 8.16667 24.5C8.16667 25.1443 8.689 25.6667 9.33333 25.6667Z" stroke="var(--stroke-0, #74A316)" stroke-width="2.33333" stroke-linecap="round" stroke-linejoin="round"/>
<path id="Vector_2" d="M22.1667 25.6667C22.811 25.6667 23.3333 25.1443 23.3333 24.5C23.3333 23.8557 22.811 23.3333 22.1667 23.3333C21.5223 23.3333 21 23.8557 21 24.5C21 25.1443 21.5223 25.6667 22.1667 25.6667Z" stroke="var(--stroke-0, #74A316)" stroke-width="2.33333" stroke-linecap="round" stroke-linejoin="round"/>
<path id="Vector_3" d="M2.39167 2.39167H4.725L7.82833 16.8817C7.94218 17.4123 8.23745 17.8867 8.66333 18.2232C9.08921 18.5596 9.61906 18.7371 10.1617 18.725H21.5717C22.1027 18.7241 22.6176 18.5422 23.0312 18.2091C23.4448 17.8761 23.7325 17.412 23.8467 16.8933L25.7717 8.225H5.97333" stroke="var(--stroke-0, #74A316)" stroke-width="2.33333" stroke-linecap="round" stroke-linejoin="round"/>
</g>
</svg>
