<svg preserveAspectRatio="none" width="100%" height="100%" overflow="visible" style="display: block;" viewBox="0 0 28 28" fill="none" xmlns="http://www.w3.org/2000/svg">
<g id="Icon">
<path id="Vector" d="M10.5 3.5H4.66667C4.02233 3.5 3.5 4.02233 3.5 4.66667V12.8333C3.5 13.4777 4.02233 14 4.66667 14H10.5C11.1443 14 11.6667 13.4777 11.6667 12.8333V4.66667C11.6667 4.02233 11.1443 3.5 10.5 3.5Z" stroke="var(--stroke-0, #16A3A3)" stroke-width="2.33333" stroke-linecap="round" stroke-linejoin="round"/>
<path id="Vector_2" d="M23.3333 3.5H17.5C16.8557 3.5 16.3333 4.02233 16.3333 4.66667V8.16667C16.3333 8.811 16.8557 9.33333 17.5 9.33333H23.3333C23.9777 9.33333 24.5 8.811 24.5 8.16667V4.66667C24.5 4.02233 23.9777 3.5 23.3333 3.5Z" stroke="var(--stroke-0, #16A3A3)" stroke-width="2.33333" stroke-linecap="round" stroke-linejoin="round"/>
<path id="Vector_3" d="M23.3333 14H17.5C16.8557 14 16.3333 14.5223 16.3333 15.1667V23.3333C16.3333 23.9777 16.8557 24.5 17.5 24.5H23.3333C23.9777 24.5 24.5 23.9777 24.5 23.3333V15.1667C24.5 14.5223 23.9777 14 23.3333 14Z" stroke="var(--stroke-0, #16A3A3)" stroke-width="2.33333" stroke-linecap="round" stroke-linejoin="round"/>
<path id="Vector_4" d="M10.5 18.6667H4.66667C4.02233 18.6667 3.5 19.189 3.5 19.8333V23.3333C3.5 23.9777 4.02233 24.5 4.66667 24.5H10.5C11.1443 24.5 11.6667 23.9777 11.6667 23.3333V19.8333C11.6667 19.189 11.1443 18.6667 10.5 18.6667Z" stroke="var(--stroke-0, #16A3A3)" stroke-width="2.33333" stroke-linecap="round" stroke-linejoin="round"/>
</g>
</svg>
