<svg preserveAspectRatio="none" width="100%" height="100%" overflow="visible" style="display: block;" viewBox="0 0 32 32" fill="none" xmlns="http://www.w3.org/2000/svg">
<g id="Icon">
<path id="Vector" d="M16 29.3333C12.4638 29.3333 9.07239 27.9286 6.57191 25.4281C4.07142 22.9276 2.66667 19.5362 2.66667 16C2.66667 12.4638 4.07142 9.07239 6.57191 6.57191C9.07239 4.07142 12.4638 2.66667 16 2.66667C19.5362 2.66667 22.9276 3.93095 25.4281 6.18138C27.9286 8.43182 29.3333 11.4841 29.3333 14.6667C29.3333 16.4348 28.631 18.1305 27.3807 19.3807C26.1305 20.631 24.4348 21.3333 22.6667 21.3333H19.6667C19.2333 21.3333 18.8086 21.454 18.44 21.6818C18.0713 21.9096 17.7735 22.2356 17.5797 22.6232C17.3859 23.0107 17.3038 23.4446 17.3428 23.8762C17.3817 24.3078 17.54 24.72 17.8 25.0667L18.2 25.6C18.46 25.9467 18.6183 26.3589 18.6572 26.7905C18.6962 27.222 18.6141 27.6559 18.4203 28.0435C18.2265 28.4311 17.9287 28.757 17.56 28.9849C17.1914 29.2127 16.7667 29.3333 16.3333 29.3333H16Z" stroke="var(--stroke-0, #A31645)" stroke-width="2.66667" stroke-linecap="round" stroke-linejoin="round"/>
<path id="Vector_2" d="M18 9.33333C18.3682 9.33333 18.6667 9.03486 18.6667 8.66667C18.6667 8.29848 18.3682 8 18 8C17.6318 8 17.3333 8.29848 17.3333 8.66667C17.3333 9.03486 17.6318 9.33333 18 9.33333Z" fill="var(--fill-0, #A31645)" stroke="var(--stroke-0, #A31645)" stroke-width="2.66667" stroke-linecap="round" stroke-linejoin="round"/>
<path id="Vector_3" d="M23.3333 14.6667C23.7015 14.6667 24 14.3682 24 14C24 13.6318 23.7015 13.3333 23.3333 13.3333C22.9651 13.3333 22.6667 13.6318 22.6667 14C22.6667 14.3682 22.9651 14.6667 23.3333 14.6667Z" fill="var(--fill-0, #A31645)" stroke="var(--stroke-0, #A31645)" stroke-width="2.66667" stroke-linecap="round" stroke-linejoin="round"/>
<path id="Vector_4" d="M8.66667 17.3333C9.03486 17.3333 9.33333 17.0349 9.33333 16.6667C9.33333 16.2985 9.03486 16 8.66667 16C8.29848 16 8 16.2985 8 16.6667C8 17.0349 8.29848 17.3333 8.66667 17.3333Z" fill="var(--fill-0, #A31645)" stroke="var(--stroke-0, #A31645)" stroke-width="2.66667" stroke-linecap="round" stroke-linejoin="round"/>
<path id="Vector_5" d="M11.3333 10.6667C11.7015 10.6667 12 10.3682 12 10C12 9.63181 11.7015 9.33333 11.3333 9.33333C10.9651 9.33333 10.6667 9.63181 10.6667 10C10.6667 10.3682 10.9651 10.6667 11.3333 10.6667Z" fill="var(--fill-0, #A31645)" stroke="var(--stroke-0, #A31645)" stroke-width="2.66667" stroke-linecap="round" stroke-linejoin="round"/>
</g>
</svg>
