<svg preserveAspectRatio="none" width="100%" height="100%" overflow="visible" style="display: block;" viewBox="0 0 28 28" fill="none" xmlns="http://www.w3.org/2000/svg">
<g id="Icon">
<path id="Vector" d="M24.99 12.7423C25.1989 12.6502 25.3761 12.4988 25.4998 12.3069C25.6234 12.1151 25.6881 11.8911 25.6857 11.6629C25.6834 11.4346 25.6141 11.212 25.4865 11.0228C25.3589 10.8335 25.1785 10.6858 24.9678 10.598L14.9683 6.04333C14.6643 5.90467 14.3341 5.83292 14 5.83292C13.6659 5.83292 13.3357 5.90467 13.0317 6.04333L3.03333 10.5933C2.82563 10.6843 2.64894 10.8338 2.52486 11.0236C2.40079 11.2134 2.33471 11.4352 2.33471 11.662C2.33471 11.8888 2.40079 12.1106 2.52486 12.3004C2.64894 12.4902 2.82563 12.6397 3.03333 12.7307L13.0317 17.29C13.3357 17.4287 13.6659 17.5004 14 17.5004C14.3341 17.5004 14.6643 17.4287 14.9683 17.29L24.99 12.7423Z" stroke="var(--stroke-0, #A35116)" stroke-width="2.33333" stroke-linecap="round" stroke-linejoin="round"/>
<path id="Vector_2" d="M25.6667 11.6667V18.6667" stroke="var(--stroke-0, #A35116)" stroke-width="2.33333" stroke-linecap="round" stroke-linejoin="round"/>
<path id="Vector_3" d="M7 14.5833V18.6667C7 19.5949 7.7375 20.4852 9.05025 21.1415C10.363 21.7979 12.1435 22.1667 14 22.1667C15.8565 22.1667 17.637 21.7979 18.9497 21.1415C20.2625 20.4852 21 19.5949 21 18.6667V14.5833" stroke="var(--stroke-0, #A35116)" stroke-width="2.33333" stroke-linecap="round" stroke-linejoin="round"/>
</g>
</svg>
