<svg preserveAspectRatio="none" width="100%" height="100%" overflow="visible" style="display: block;" viewBox="0 0 24 24" fill="none" xmlns="http://www.w3.org/2000/svg">
<g id="uiw:mobile" clip-path="url(#clip0_711_12584)">
<path id="Vector" d="M18 -4.76837e-07C18.6365 -4.76837e-07 19.247 0.252856 19.6971 0.702943C20.1471 1.15303 20.4 1.76348 20.4 2.4V21.6C20.4 22.2365 20.1471 22.847 19.6971 23.2971C19.247 23.7471 18.6365 24 18 24H6C5.36348 24 4.75303 23.7471 4.30294 23.2971C3.85286 22.847 3.6 22.2365 3.6 21.6V2.4C3.6 1.76348 3.85286 1.15303 4.30294 0.702943C4.75303 0.252856 5.36348 -4.76837e-07 6 -4.76837e-07L18 -4.76837e-07ZM18.72 18.4656H5.28V21.6C5.28 21.791 5.35586 21.9741 5.49088 22.1091C5.62591 22.2441 5.80904 22.32 6 22.32H18C18.191 22.32 18.3741 22.2441 18.5091 22.1091C18.6441 21.9741 18.72 21.791 18.72 21.6V18.4656ZM12 19.2C12.3183 19.2 12.6235 19.3264 12.8485 19.5515C13.0736 19.7765 13.2 20.0817 13.2 20.4C13.2 20.7183 13.0736 21.0235 12.8485 21.2485C12.6235 21.4736 12.3183 21.6 12 21.6C11.6817 21.6 11.3765 21.4736 11.1515 21.2485C10.9264 21.0235 10.8 20.7183 10.8 20.4C10.8 20.0817 10.9264 19.7765 11.1515 19.5515C11.3765 19.3264 11.6817 19.2 12 19.2ZM18 1.68H6C5.80904 1.68 5.62591 1.75586 5.49088 1.89088C5.35586 2.02591 5.28 2.20904 5.28 2.4V16.7856H18.72V2.4C18.72 2.20904 18.6441 2.02591 18.5091 1.89088C18.3741 1.75586 18.191 1.68 18 1.68Z" fill="var(--fill-0, #1645A3)"/>
</g>
<defs>
<clipPath id="clip0_711_12584">
<rect width="24" height="24" fill="white"/>
</clipPath>
</defs>
</svg>
