<svg preserveAspectRatio="none" width="100%" height="100%" overflow="visible" style="display: block;" viewBox="0 0 18 18" fill="none" xmlns="http://www.w3.org/2000/svg">
<g id="Icon" clip-path="url(#clip0_711_12556)">
<path id="Vector" d="M3.74952 4.12481C3.74952 3.42861 4.02608 2.76094 4.51836 2.26865C5.01065 1.77637 5.67833 1.49981 6.37452 1.49981H8.99952V6.74981H6.37452C5.67833 6.74981 5.01065 6.47325 4.51836 5.98096C4.02608 5.48868 3.74952 4.821 3.74952 4.12481Z" stroke="var(--stroke-0, #29ADC5)" stroke-width="1.49981" stroke-linecap="round" stroke-linejoin="round"/>
<path id="Vector_2" d="M8.99884 1.49981H11.6238C11.9686 1.49981 12.3099 1.5677 12.6284 1.69962C12.9469 1.83154 13.2362 2.0249 13.48 2.26865C13.7238 2.51241 13.9171 2.80178 14.049 3.12026C14.1809 3.43874 14.2488 3.78009 14.2488 4.12481C14.2488 4.46953 14.1809 4.81087 14.049 5.12935C13.9171 5.44783 13.7238 5.73721 13.48 5.98096C13.2362 6.22472 12.9469 6.41807 12.6284 6.54999C12.3099 6.68191 11.9686 6.74981 11.6238 6.74981H8.99884V1.49981Z" stroke="var(--stroke-0, #29ADC5)" stroke-width="1.49981" stroke-linecap="round" stroke-linejoin="round"/>
<path id="Vector_3" d="M8.99884 9.37413C8.99884 9.02941 9.06674 8.68807 9.19866 8.36959C9.33058 8.05111 9.52394 7.76173 9.76769 7.51798C10.0114 7.27422 10.3008 7.08087 10.6193 6.94895C10.9378 6.81703 11.2791 6.74913 11.6238 6.74913C11.9686 6.74913 12.3099 6.81703 12.6284 6.94895C12.9469 7.08087 13.2362 7.27422 13.48 7.51798C13.7238 7.76173 13.9171 8.05111 14.049 8.36959C14.1809 8.68807 14.2488 9.02941 14.2488 9.37413C14.2488 9.71885 14.1809 10.0602 14.049 10.3787C13.9171 10.6972 13.7238 10.9865 13.48 11.2303C13.2362 11.474 12.9469 11.6674 12.6284 11.7993C12.3099 11.9312 11.9686 11.9991 11.6238 11.9991C11.2791 11.9991 10.9378 11.9312 10.6193 11.7993C10.3008 11.6674 10.0114 11.474 9.76769 11.2303C9.52394 10.9865 9.33058 10.6972 9.19866 10.3787C9.06674 10.0602 8.99884 9.71885 8.99884 9.37413Z" stroke="var(--stroke-0, #29ADC5)" stroke-width="1.49981" stroke-linecap="round" stroke-linejoin="round"/>
<path id="Vector_4" d="M3.74952 14.6235C3.74952 13.9273 4.02608 13.2596 4.51836 12.7673C5.01065 12.275 5.67833 11.9985 6.37452 11.9985H8.99952V14.6235C8.99952 15.3197 8.72296 15.9873 8.23067 16.4796C7.73839 16.9719 7.07071 17.2485 6.37452 17.2485C5.67833 17.2485 5.01065 16.9719 4.51836 16.4796C4.02608 15.9873 3.74952 15.3197 3.74952 14.6235Z" stroke="var(--stroke-0, #29ADC5)" stroke-width="1.49981" stroke-linecap="round" stroke-linejoin="round"/>
<path id="Vector_5" d="M3.74952 9.37413C3.74952 8.67794 4.02608 8.01026 4.51836 7.51798C5.01065 7.02569 5.67833 6.74913 6.37452 6.74913H8.99952V11.9991H6.37452C5.67833 11.9991 5.01065 11.7226 4.51836 11.2303C4.02608 10.738 3.74952 10.0703 3.74952 9.37413Z" stroke="var(--stroke-0, #29ADC5)" stroke-width="1.49981" stroke-linecap="round" stroke-linejoin="round"/>
</g>
<defs>
<clipPath id="clip0_711_12556">
<rect width="17.9977" height="17.9977" fill="white"/>
</clipPath>
</defs>
</svg>
