<svg preserveAspectRatio="none" width="100%" height="100%" overflow="visible" style="display: block;" viewBox="0 0 18 18" fill="none" xmlns="http://www.w3.org/2000/svg">
<g id="Icon" clip-path="url(#clip0_711_12566)">
<path id="Vector" d="M11.9985 5.99923C13.1918 5.99923 14.3362 6.47327 15.18 7.31708C16.0238 8.16089 16.4979 9.30533 16.4979 10.4987V15.748H13.4983V10.4987C13.4983 10.1009 13.3403 9.7194 13.059 9.43813C12.7777 9.15686 12.3962 8.99884 11.9985 8.99884C11.6007 8.99884 11.2192 9.15686 10.9379 9.43813C10.6567 9.7194 10.4987 10.1009 10.4987 10.4987V15.748H7.49904V10.4987C7.49904 9.30533 7.97308 8.16089 8.81689 7.31708C9.66069 6.47327 10.8051 5.99923 11.9985 5.99923Z" stroke="var(--stroke-0, #29ADC5)" stroke-width="1.49981" stroke-linecap="round" stroke-linejoin="round"/>
<path id="Vector_2" d="M4.49942 6.74913H1.49981V15.748H4.49942V6.74913Z" stroke="var(--stroke-0, #29ADC5)" stroke-width="1.49981" stroke-linecap="round" stroke-linejoin="round"/>
<path id="Vector_3" d="M3 4.5C3.82843 4.5 4.5 3.82843 4.5 3C4.5 2.17157 3.82843 1.5 3 1.5C2.17157 1.5 1.5 2.17157 1.5 3C1.5 3.82843 2.17157 4.5 3 4.5Z" stroke="var(--stroke-0, #29ADC5)" stroke-width="1.49981" stroke-linecap="round" stroke-linejoin="round"/>
</g>
<defs>
<clipPath id="clip0_711_12566">
<rect width="17.9977" height="17.9977" fill="white"/>
</clipPath>
</defs>
</svg>
