<svg preserveAspectRatio="none" width="100%" height="100%" overflow="visible" style="display: block;" viewBox="0 0 18 18" fill="none" xmlns="http://www.w3.org/2000/svg">
<g id="uil:whatsapp">
<path id="Vector" d="M12.45 10.5001C12.3 10.4251 11.325 9.97507 11.175 9.90007C11.025 9.82507 10.875 9.82507 10.725 9.97507C10.575 10.1251 10.275 10.5751 10.125 10.7251C10.05 10.8751 9.9 10.8751 9.75 10.8001C9.225 10.5751 8.7 10.2751 8.25 9.90007C7.875 9.52507 7.5 9.07507 7.2 8.62507C7.125 8.47507 7.2 8.32507 7.275 8.25007C7.35 8.17507 7.425 8.02507 7.575 7.95007C7.65 7.87507 7.725 7.72507 7.725 7.65007C7.8 7.57507 7.8 7.42507 7.725 7.35007C7.65 7.27507 7.275 6.37507 7.125 6.00007C7.05 5.47507 6.9 5.47507 6.75 5.47507H6.375C6.225 5.47507 6 5.62507 5.925 5.70007C5.475 6.15007 5.25 6.67507 5.25 7.27507C5.325 7.95007 5.55 8.62507 6 9.22507C6.825 10.4251 7.875 11.4001 9.15 12.0001C9.525 12.1501 9.825 12.3001 10.2 12.3751C10.575 12.5251 10.95 12.5251 11.4 12.4501C11.925 12.3751 12.375 12.0001 12.675 11.5501C12.825 11.2501 12.825 10.9501 12.75 10.6501L12.45 10.5001ZM14.325 3.67507C11.4 0.750073 6.675 0.750073 3.75 3.67507C1.35 6.07507 0.9 9.75007 2.55 12.6751L1.5 16.5001L5.475 15.4501C6.6 16.0501 7.8 16.3501 9 16.3501C13.125 16.3501 16.425 13.0501 16.425 8.92507C16.5 6.97507 15.675 5.10007 14.325 3.67507ZM12.3 14.1751C11.325 14.7751 10.2 15.1501 9 15.1501C7.875 15.1501 6.825 14.8501 5.85 14.3251L5.625 14.1751L3.3 14.7751L3.9 12.5251L3.75 12.3001C1.95 9.30007 2.85 5.55007 5.775 3.67507C8.7 1.80007 12.45 2.77507 14.25 5.62507C16.05 8.55007 15.225 12.3751 12.3 14.1751Z" fill="var(--fill-0, #99A1AF)"/>
</g>
</svg>
