<svg width="561" height="518" viewBox="0 0 561 518" fill="none" xmlns="http://www.w3.org/2000/svg">
<g opacity="0.9">
<g filter="url(#filter0_d_687_61676)">
<path d="M497.653 413.536C497.027 413.922 496.255 413.906 495.628 413.536L475.668 401.242C475.347 401.033 475.347 400.567 475.668 400.358L497.541 387.083C497.927 386.858 498.393 386.858 498.778 387.083L519.365 399.763C519.59 399.908 519.59 400.229 519.365 400.358L497.653 413.52V413.536Z" fill="url(#paint0_linear_687_61676)"/>
</g>
<g filter="url(#filter1_d_687_61676)">
<path d="M514.705 490.982C514.078 491.368 513.307 491.351 512.68 490.982L492.72 478.688C492.398 478.479 492.398 478.013 492.72 477.804L514.592 464.529C514.978 464.304 515.46 464.304 515.83 464.529L536.416 477.209C536.641 477.354 536.641 477.675 536.416 477.804L514.705 490.966V490.982Z" fill="url(#paint1_linear_687_61676)"/>
</g>
<g filter="url(#filter2_d_687_61676)">
<path d="M364.536 501.17C364.214 501.363 363.812 501.363 363.507 501.17L353.318 494.902C353.157 494.806 353.157 494.549 353.318 494.452L364.487 487.686C364.68 487.574 364.921 487.574 365.114 487.686L375.625 494.163C375.737 494.227 375.737 494.404 375.625 494.468L364.536 501.186V501.17Z" fill="url(#paint2_linear_687_61676)"/>
</g>
<g filter="url(#filter3_d_687_61676)">
<path d="M60.2673 376.669C59.3834 377.216 58.2584 377.199 57.3745 376.669L28.8969 359.136C28.4308 358.847 28.4308 358.172 28.8969 357.882L60.1066 338.967C60.653 338.629 61.3279 338.645 61.8743 338.967L91.2358 357.047C91.5573 357.239 91.5573 357.706 91.2358 357.898L60.2673 376.685V376.669Z" fill="url(#paint3_linear_687_61676)"/>
</g>
<g filter="url(#filter4_d_687_61676)">
<path d="M437.37 165.562C436.92 165.835 436.357 165.835 435.907 165.562L421.508 156.707C421.267 156.562 421.267 156.225 421.508 156.08L437.289 146.518C437.563 146.357 437.916 146.357 438.189 146.518L453.039 155.662C453.2 155.759 453.2 156 453.039 156.096L437.386 165.594L437.37 165.562Z" fill="url(#paint4_linear_687_61676)"/>
</g>
<g filter="url(#filter5_d_687_61676)">
<path d="M88.875 255.944C88.5375 256.153 88.1036 256.153 87.7661 255.944L76.9182 249.259C76.7415 249.146 76.7415 248.889 76.9182 248.777L88.8107 241.561C89.0196 241.432 89.2768 241.432 89.4857 241.561L100.671 248.455C100.8 248.536 100.8 248.712 100.671 248.777L88.875 255.928V255.944Z" fill="url(#paint5_linear_687_61676)"/>
</g>
<g filter="url(#filter6_d_687_61676)">
<path d="M133.696 252.28C133.246 252.553 132.684 252.553 132.234 252.28L117.834 243.425C117.593 243.281 117.593 242.943 117.834 242.798L133.616 233.236C133.889 233.076 134.242 233.076 134.516 233.236L149.365 242.381C149.526 242.477 149.526 242.718 149.365 242.814L133.712 252.312L133.696 252.28Z" fill="url(#paint6_linear_687_61676)"/>
</g>
<path d="M263.884 465.559L206.913 500.288C205.258 501.301 203.168 501.301 201.529 500.288L83.3761 427.568C82.0422 426.748 82.0422 424.803 83.3761 423.984L163.682 374.678C164.839 373.971 164.839 372.284 163.682 371.577L68.7194 312.87" stroke="url(#paint7_linear_687_61676)" stroke-width="0.803544" stroke-miterlimit="10"/>
<path d="M71.0169 314.235C70.4705 315.151 69.1045 315.36 67.9634 314.685C66.8224 314.01 66.3403 312.725 66.8867 311.793C67.4331 310.86 68.7991 310.668 69.9241 311.343C71.0651 312.018 71.5472 313.303 71.0008 314.235H71.0169Z" fill="url(#paint8_linear_687_61676)"/>
<path d="M100.894 413.199C100.347 412.283 98.9814 412.074 97.8404 412.749C96.6994 413.424 96.2172 414.71 96.7637 415.642C97.3101 416.574 98.6761 416.767 99.801 416.092C100.942 415.417 101.424 414.131 100.878 413.199H100.894Z" fill="url(#paint9_linear_687_61676)"/>
<path d="M384.996 258.596L465.303 209.291C466.46 208.584 466.46 206.896 465.303 206.189L399.123 165.241" stroke="url(#paint10_linear_687_61676)" stroke-width="0.803544" stroke-miterlimit="10"/>
<path d="M401.42 166.623C400.873 167.539 399.507 167.748 398.382 167.073C397.241 166.398 396.759 165.112 397.306 164.18C397.852 163.248 399.218 163.055 400.359 163.73C401.5 164.405 401.982 165.691 401.436 166.623H401.42Z" fill="url(#paint11_linear_687_61676)"/>
<path d="M478.947 366.626L559.253 317.32C560.41 316.613 560.41 314.926 559.253 314.219L493.073 273.27" stroke="url(#paint12_linear_687_61676)" stroke-width="0.803544" stroke-miterlimit="10"/>
<path d="M495.37 274.653C494.824 275.569 493.458 275.778 492.317 275.103C491.176 274.428 490.694 273.142 491.24 272.21C491.787 271.278 493.153 271.085 494.278 271.76C495.419 272.435 495.901 273.721 495.354 274.653H495.37Z" fill="url(#paint13_linear_687_61676)"/>
<path d="M289.341 176.716L209.035 226.022C207.878 226.729 207.878 228.416 209.035 229.123L275.215 270.072" stroke="url(#paint14_linear_687_61676)" stroke-width="0.803544" stroke-miterlimit="10"/>
<path d="M272.918 268.706C273.465 267.79 274.831 267.581 275.972 268.256C277.113 268.931 277.595 270.217 277.048 271.149C276.502 272.081 275.136 272.274 273.995 271.599C272.854 270.924 272.372 269.638 272.918 268.706Z" fill="url(#paint15_linear_687_61676)"/>
<path d="M119.81 360.182L62.8388 394.911C61.1835 395.924 59.0943 395.924 57.4551 394.911L0.210571 359.684" stroke="url(#paint16_linear_687_61676)" stroke-width="0.803544" stroke-miterlimit="10"/>
<path d="M121.997 359.009C121.45 358.093 120.084 357.884 118.943 358.559C117.802 359.234 117.32 360.519 117.866 361.451C118.413 362.384 119.779 362.576 120.92 361.901C122.061 361.226 122.543 359.941 121.997 359.009Z" fill="url(#paint17_linear_687_61676)"/>
<path d="M490.902 249.067L433.93 283.796C432.275 284.809 430.186 284.809 428.547 283.796L371.318 248.569" stroke="url(#paint18_linear_687_61676)" stroke-width="0.803544" stroke-miterlimit="10"/>
<path d="M493.088 247.894C492.542 246.978 491.176 246.769 490.035 247.444C488.894 248.119 488.411 249.405 488.958 250.337C489.504 251.269 490.87 251.462 492.011 250.787C493.152 250.112 493.635 248.826 493.088 247.894Z" fill="url(#paint19_linear_687_61676)"/>
<path d="M325.196 459.066L382.168 424.336C383.823 423.324 385.912 423.324 387.551 424.336L444.78 459.564" stroke="url(#paint20_linear_687_61676)" stroke-width="0.803544" stroke-miterlimit="10"/>
<path d="M347.727 403.445L404.698 368.716C406.353 367.703 408.442 367.703 410.098 368.716L528.251 441.437C529.585 442.256 529.585 444.201 528.251 445.02L487.093 470.284" stroke="url(#paint21_linear_687_61676)" stroke-width="0.803544" stroke-miterlimit="10"/>
<path d="M485.311 471.281C485.858 472.197 487.224 472.406 488.365 471.731C489.506 471.056 489.988 469.771 489.441 468.838C488.895 467.906 487.529 467.713 486.404 468.388C485.279 469.063 484.781 470.349 485.327 471.281H485.311Z" fill="url(#paint22_linear_687_61676)"/>
<path d="M500.868 424.45C500.321 425.366 498.955 425.575 497.83 424.9C496.689 424.225 496.207 422.939 496.753 422.007C497.3 421.075 498.666 420.882 499.807 421.557C500.948 422.232 501.43 423.518 500.884 424.45H500.868Z" fill="url(#paint23_linear_687_61676)"/>
<path d="M71.9521 376.51L128.923 341.78C130.579 340.768 132.668 340.768 134.307 341.78L354.494 477.274C355.828 478.094 355.828 480.038 354.494 480.858L313.337 506.121" stroke="url(#paint24_linear_687_61676)" stroke-width="0.803544" stroke-miterlimit="10"/>
<path d="M311.566 507.133C312.113 508.049 313.479 508.258 314.62 507.583C315.761 506.908 316.243 505.623 315.696 504.69C315.15 503.758 313.784 503.566 312.643 504.241C311.502 504.915 311.02 506.201 311.566 507.133Z" fill="url(#paint25_linear_687_61676)"/>
<path d="M327.125 460.287C326.578 461.203 325.212 461.412 324.071 460.737C322.93 460.062 322.448 458.776 322.995 457.844C323.541 456.928 324.907 456.719 326.048 457.394C327.189 458.069 327.671 459.355 327.125 460.287Z" fill="url(#paint26_linear_687_61676)"/>
<path d="M514.527 478.206L457.555 512.935C455.9 513.948 453.811 513.948 452.172 512.935L332.974 439.572C331.833 438.865 330.403 438.865 329.261 439.572L266.183 478.544" stroke="url(#paint27_linear_687_61676)" stroke-width="0.803544" stroke-miterlimit="10"/>
<path d="M268.224 477.258C267.677 476.342 266.311 476.133 265.17 476.808C264.029 477.483 263.547 478.769 264.094 479.701C264.64 480.617 266.006 480.826 267.147 480.151C268.288 479.476 268.77 478.19 268.224 477.258Z" fill="url(#paint28_linear_687_61676)"/>
<path d="M41.8661 427.326V393.271" stroke="url(#paint29_linear_687_61676)" stroke-width="0.803544" stroke-miterlimit="10" stroke-linecap="round"/>
<path d="M364.457 216.684V182.63" stroke="url(#paint30_linear_687_61676)" stroke-width="0.803544" stroke-miterlimit="10" stroke-linecap="round"/>
<path d="M501.09 245.983V211.929" stroke="url(#paint31_linear_687_61676)" stroke-width="0.803544" stroke-miterlimit="10" stroke-linecap="round"/>
<path d="M485.083 347.422V313.368" stroke="url(#paint32_linear_687_61676)" stroke-width="0.803544" stroke-miterlimit="10" stroke-linecap="round"/>
<path d="M101.118 314.492V280.438" stroke="url(#paint33_linear_687_61676)" stroke-width="0.803544" stroke-miterlimit="10" stroke-linecap="round"/>
<path d="M111.821 330.612V296.558" stroke="url(#paint34_linear_687_61676)" stroke-width="0.803544" stroke-miterlimit="10" stroke-linecap="round"/>
<path d="M544.885 380.656V346.602" stroke="url(#paint35_linear_687_61676)" stroke-width="0.803544" stroke-miterlimit="10" stroke-linecap="round"/>
<path d="M248.748 511.489V477.435" stroke="url(#paint36_linear_687_61676)" stroke-width="0.803544" stroke-miterlimit="10" stroke-linecap="round"/>
<path d="M49.0979 446.322V412.268" stroke="url(#paint37_linear_687_61676)" stroke-width="0.803544" stroke-miterlimit="10" stroke-linecap="round"/>
<path d="M149.459 190.12V156.082" stroke="url(#paint38_linear_687_61676)" stroke-width="0.803544" stroke-miterlimit="10" stroke-linecap="round"/>
<path d="M355.49 190.12V156.082" stroke="url(#paint39_linear_687_61676)" stroke-width="0.803544" stroke-miterlimit="10" stroke-linecap="round"/>
<path style="mix-blend-mode:screen" d="M253.824 368.827C251.205 370.418 247.926 370.402 245.323 368.795L161.561 317.224C160.179 316.372 160.195 314.379 161.561 313.544L253.358 257.874C254.965 256.91 256.958 256.91 258.565 257.89L344.93 311.053C345.862 311.631 345.862 312.997 344.93 313.576L253.84 368.811L253.824 368.827Z" stroke="url(#paint40_linear_687_61676)" stroke-width="1.60709" stroke-miterlimit="10"/>
<path d="M345.526 297.746V159.825L160.534 162.413V301.313C160.534 301.313 160.534 301.345 160.534 301.361V301.394C160.534 302.085 160.888 302.776 161.563 303.194L245.324 354.765C247.928 356.372 251.206 356.372 253.826 354.797L344.915 299.562C345.558 299.176 345.751 298.404 345.526 297.778V297.746Z" fill="url(#paint41_linear_687_61676)"/>
<g filter="url(#filter7_d_687_61676)">
<path d="M253.824 216.362C251.205 217.953 247.926 217.937 245.323 216.33L161.561 164.758C160.179 163.907 160.195 161.914 161.561 161.078L253.358 105.409C254.965 104.444 256.958 104.444 258.565 105.425L344.93 158.587C345.862 159.166 345.862 160.532 344.93 161.11L253.84 216.346L253.824 216.362Z" fill="url(#paint42_linear_687_61676)"/>
</g>
<path style="mix-blend-mode:screen" d="M387.262 442.158C384.642 443.749 381.364 443.733 378.76 442.126L294.999 390.554C293.617 389.703 293.633 387.71 294.999 386.874L386.796 331.205C388.403 330.24 390.396 330.24 392.003 331.221L478.368 384.383C479.3 384.962 479.3 386.328 478.368 386.906L387.278 442.142L387.262 442.158Z" stroke="url(#paint43_linear_687_61676)" stroke-width="1.60709" stroke-miterlimit="10"/>
<path d="M478.963 371.092V272.674L293.971 275.262V374.644C293.971 374.644 293.971 374.676 293.971 374.692V374.724C293.971 375.415 294.325 376.107 295 376.524L378.761 428.096C381.365 429.703 384.643 429.703 387.263 428.128L478.353 372.892C478.995 372.507 479.188 371.735 478.963 371.108V371.092Z" fill="url(#paint44_linear_687_61676)"/>
<g filter="url(#filter8_d_687_61676)">
<path d="M387.262 329.212C384.642 330.803 381.364 330.787 378.76 329.18L294.999 277.608C293.617 276.756 293.633 274.764 294.999 273.928L386.796 218.258C388.403 217.294 390.395 217.294 392.003 218.274L478.367 271.437C479.3 272.015 479.3 273.381 478.367 273.96L387.278 329.196L387.262 329.212Z" fill="url(#paint45_linear_687_61676)"/>
</g>
<path style="mix-blend-mode:screen" d="M218.291 475.297C215.672 476.888 212.393 476.872 209.79 475.265L126.028 423.693C124.646 422.841 124.662 420.848 126.028 420.013L217.825 364.343C219.432 363.379 221.425 363.379 223.032 364.359L309.397 417.522C310.329 418.1 310.329 419.466 309.397 420.045L218.307 475.281L218.291 475.297Z" stroke="url(#paint46_linear_687_61676)" stroke-width="1.60709" stroke-miterlimit="10"/>
<path d="M309.995 404.216V353.142L229.463 354.267L223.035 350.314C221.444 349.334 219.435 349.334 217.828 350.298L210.837 354.541L125.003 355.746V407.783C125.003 407.783 125.003 407.816 125.003 407.832V407.864C125.003 408.555 125.356 409.246 126.031 409.664L209.793 461.235C212.396 462.842 215.675 462.842 218.294 461.267L309.384 406.032C310.027 405.646 310.22 404.875 309.995 404.248V404.216Z" fill="url(#paint47_linear_687_61676)"/>
<g filter="url(#filter9_d_687_61676)">
<path d="M218.291 409.117C215.672 410.708 212.393 410.692 209.79 409.085L126.028 357.513C124.646 356.662 124.662 354.669 126.028 353.833L217.825 298.164C219.432 297.199 221.425 297.199 223.032 298.18L309.397 351.342C310.329 351.921 310.329 353.287 309.397 353.865L218.307 409.101L218.291 409.117Z" fill="url(#paint48_linear_687_61676)"/>
</g>
<path d="M191.052 290.706C191.052 290.706 190.136 290.851 189.766 290.899C189.397 290.947 187.564 290.931 186.52 290.802C185.475 290.69 184.511 291.783 183.74 292.217C182.968 292.651 179.336 293.197 179.143 293.438C178.95 293.679 179.224 293.968 179.577 294.129C179.931 294.29 182.261 293.936 182.968 293.92C183.675 293.904 185.475 293.518 185.572 293.599C185.668 293.679 185.298 293.856 184.656 293.936C184.013 294.017 183.627 294.547 183.675 294.917C183.723 295.286 185.748 294.981 186.809 294.724C187.87 294.467 188.77 294.065 189.686 293.84C190.602 293.615 191.55 293.583 191.55 293.583" fill="#F2CFA4"/>
<path d="M202.993 361.835C203.105 361.529 203.861 360.806 203.861 360.806L215.078 358.572C215.078 358.572 215.126 359.906 215.143 360.035C215.175 360.163 213.921 360.854 213.294 361.16C212.668 361.449 212.362 361.513 212.362 361.513L211.816 361.32C211.527 361.385 211.125 361.513 210.755 361.69C210.112 362.028 209.052 362.751 207.975 363.185C206.898 363.619 205.612 363.94 204.343 363.602C203.073 363.265 202.784 362.349 202.961 361.835H202.993Z" fill="#1A1401"/>
<path d="M210.275 355.229C210.275 355.229 209.6 355.519 208.009 357.11C206.418 358.701 203.477 360.404 203.011 361.336C202.625 362.14 203.011 362.927 204.441 363.361C205.871 363.795 208.201 362.767 209.648 361.786C211.094 360.806 214.308 360.244 214.887 359.247C215.466 358.267 214.742 356.595 214.485 356.194C214.212 355.776 213.633 354.442 210.291 355.229H210.275Z" fill="#1B115E"/>
<path d="M221.123 365.789C221.123 365.789 220.448 367.123 220.512 368.023C220.544 368.569 220.946 369.791 221.54 370.241C222.039 370.61 223.581 371.205 226.185 369.614C228.788 368.039 228.081 364.696 228.033 364.214C228.001 363.732 227.921 362.27 228.033 361.53" fill="#1A1401"/>
<path d="M228.065 361.272C228.065 361.272 227.936 362.076 227.92 363.844C227.92 365.612 227.969 366.801 227.069 368.07C225.944 369.645 223.597 370.578 222.231 370.015C220.351 369.26 220.528 367.122 220.913 365.949C221.283 364.792 222.617 363.651 222.858 362.414C223.115 361.176 222.617 358.669 225.14 358.332C227.342 358.042 228.467 359.071 228.065 361.272Z" fill="#1B115E"/>
<path d="M213.985 352.354C213.985 352.354 213.712 355.07 213.792 355.825C213.857 356.581 210.658 357.031 209.791 356.034C209.791 356.034 209.646 354.299 209.614 353.109" fill="#F2CFA4"/>
<path d="M207.608 331.719C208.138 334.805 209.086 354.138 209.086 354.138C212.332 355.665 214.743 353.816 214.743 353.816C214.743 353.816 216.109 340.011 216.157 339.626C216.704 335.56 216.463 330.546 216.125 329.276C215.772 328.007 216.623 318.975 217.636 315.632C218.102 314.105 218.472 313.093 218.777 312.08C219.146 310.891 219.404 309.718 219.596 307.741C219.934 304.077 218.182 300.734 218.182 300.734C218.182 300.734 207.511 299.963 207.254 302.695C206.933 306.07 206.386 324.776 207.608 331.719Z" fill="#1B115E"/>
<path d="M227.775 356.243C227.775 356.243 227.502 358.959 227.582 359.714C227.647 360.469 224.448 360.919 223.581 359.923C223.581 359.923 223.436 358.187 223.404 356.998" fill="#F2CFA4"/>
<path d="M226.619 304.832C226.619 304.832 228.644 308.223 228.58 311.871C228.516 315.503 228.467 316.435 227.712 319.746C226.957 323.057 228.692 331.928 229.142 333.197C229.592 334.483 230.01 338.549 229.785 342.599C229.56 346.52 228.403 357.705 228.403 357.705C228.403 357.705 226.057 359.634 222.682 358.011C222.682 358.011 221.059 338.244 219.998 335.238C217.668 328.617 215.418 315.68 215 313.237C213.811 310.039 214.245 307.066 214.245 305.33C214.245 303.595 226.635 304.8 226.635 304.8L226.619 304.832Z" fill="#1B115E"/>
<path d="M207.895 286.253C204.954 286.719 189.847 290.657 189.847 290.657L190.265 294.096C190.265 294.096 208.843 293.292 209.277 292.987C209.711 292.682 209.711 290.946 209.711 290.946" fill="#E3F6FF"/>
<path d="M204.76 277.543C204.76 277.543 211.076 278.926 211.397 280.115C211.606 280.902 210.192 287.17 208.087 292.361C206.351 291.589 204.728 290.834 203.539 290.127C203.876 287.138 204.76 277.527 204.76 277.527" fill="#E3F6FF"/>
<path d="M206.141 268.447C206.141 268.447 204.695 274.056 204.325 282.284C204.325 282.284 204.518 282.557 209.034 283.794" fill="#E3F6FF"/>
<path d="M207.541 298.211C207.332 299.737 207.139 301.168 206.995 302.405C206.914 303.08 207.268 303.739 207.895 304.012C211.462 305.587 220.944 307.419 224.48 307.419C224.592 307.419 224.689 307.419 224.769 307.419C227.163 307.323 227.726 306.262 227.838 305.539C227.838 305.298 227.838 305.073 227.822 304.848C227.758 303.835 227.613 302.807 227.324 301.778C227.26 301.521 227.196 301.248 227.115 300.991C227.035 300.686 226.938 300.396 226.874 300.091C226.826 299.946 226.794 299.802 226.762 299.657C226.73 299.512 226.697 299.384 226.665 299.239C225.878 295.382 227.244 291.83 228.562 288.295C228.931 287.315 229.285 286.318 229.59 285.322C230.233 283.2 230.876 281.079 231.39 278.942C231.438 278.733 231.503 278.508 231.551 278.283C231.824 277.222 232.113 276.065 232.049 274.988C231.92 274.635 231.76 274.313 231.615 274.008C231.39 273.542 231.181 273.14 230.956 272.786C230.442 271.951 229.992 271.404 229.654 271.083C229.446 270.89 229.253 270.713 229.044 270.553C228.706 270.263 228.369 270.006 228.031 269.781C227.774 269.588 227.533 269.428 227.308 269.283C227.212 269.219 227.115 269.154 227.019 269.09C227.003 269.09 226.987 269.074 226.971 269.058C226.971 269.058 226.938 269.058 226.922 269.042C226.842 268.994 226.762 268.929 226.697 268.881C226.537 268.769 226.376 268.672 226.215 268.576C226.055 268.479 225.878 268.383 225.717 268.287C225.46 268.142 225.155 267.981 224.833 267.821C224.126 267.467 223.226 267.049 221.94 266.551L221.089 266.23C220.912 266.165 220.735 266.117 220.542 266.053C219.658 265.78 218.758 265.571 217.858 265.378C216.46 265.072 215.03 264.847 213.68 264.59C213.439 264.59 213.214 264.59 212.973 264.606C212.202 264.655 211.125 264.864 210.161 265.089C208.119 265.555 206.416 267.065 205.918 269.074C205.837 269.363 205.805 269.669 205.773 269.99C205.596 272.867 208.778 289.131 207.541 298.211Z" fill="white"/>
<path d="M214.533 266.583C214.533 266.583 212.862 268.191 214.196 269.396L214.983 267.708L214.228 267.033" fill="#D5AB80"/>
<path d="M221.265 260.622L221.072 267.146C221.072 267.146 216.171 270.971 214.194 269.396C214.162 268.239 214.178 265.475 214.194 263.884L216.058 263.514L221.249 260.638L221.265 260.622Z" fill="#E2B888"/>
<path d="M210.626 255.607C210.626 255.607 210.321 258.757 210.964 261.65C211.623 264.526 211.816 265.185 212.973 265.699C214.13 266.214 215.174 266.262 217.135 265.008C219.096 263.755 220.156 261.714 220.156 261.714C220.156 261.714 220.43 261.891 221.137 261.103C222.229 259.866 222.438 259.255 222.438 257.584C222.438 255.912 222.021 253.807 220.719 251.621C219.417 249.436 215.415 250.127 213.599 251.059C211.783 251.991 210.964 253.743 210.626 255.623V255.607Z" fill="#F2CFA4"/>
<path d="M210.418 255.992C212.298 257.632 215.946 255.992 215.946 255.992L216.027 256.957C216.396 258.499 217.473 258.644 217.987 258.917C218.502 259.206 218.614 260.765 218.614 260.765L219.273 260.701C219.273 260.701 219.257 259.207 219.482 258.467C219.723 257.712 220.96 257.133 221.651 258.226C222.214 259.11 221.684 260.187 221.266 260.974C221.266 260.974 222.455 261.328 222.76 256.491C222.76 256.491 222.857 254.08 222.6 252.698C222.31 251.139 219.932 249.001 217.425 249.018C217.425 249.018 214.195 248.809 212.555 250.705C210.563 253.003 210.145 252.955 209.582 252.409C208.811 253.196 209.148 254.867 210.434 255.992H210.418Z" fill="#2D166D"/>
<path d="M224.127 296.716C224.063 297.278 224.031 298.934 224.127 299.721C224.465 302.405 224.979 304.8 224.497 307.403C224.609 307.403 224.706 307.403 224.786 307.403C227.181 307.307 227.743 306.246 227.856 305.523C227.856 305.282 227.856 305.057 227.84 304.832C227.775 303.819 227.631 302.791 227.341 301.762C227.277 301.505 227.197 301.248 227.132 300.991C227.052 300.685 226.956 300.38 226.891 300.091C226.843 299.946 226.811 299.802 226.779 299.657C226.747 299.512 226.715 299.384 226.682 299.239C225.895 295.382 227.261 291.83 228.579 288.295C228.37 286.35 228.145 284.02 228.145 283.779C228.145 283.377 224.063 278.62 224.063 278.62C224.063 278.62 225.108 287.314 224.127 296.716Z" fill="#E3F6FF"/>
<path d="M242.317 313.735L223.594 325.065L221.569 323.844L240.308 312.514L242.317 313.735Z" fill="#6095B8"/>
<path d="M223.593 325.065V338.468L242.316 327.138V313.735L223.593 325.065Z" fill="#6095B8"/>
<path d="M223.593 325.065V331.204L242.316 319.874V313.735L223.593 325.065Z" fill="#5990AE"/>
<path d="M230.121 326.383V328.247L230.362 328.376L235.81 324.808L236.051 323.072L235.81 322.944L230.121 326.383Z" fill="#497790"/>
<path d="M230.362 326.511V328.376L236.051 324.936V323.072L230.362 326.511Z" fill="#3D5E73"/>
<path d="M223.594 325.065V338.468L221.569 337.247V323.844L223.594 325.065Z" fill="#4B79A1"/>
<path d="M235.021 313.863C234.731 313.702 234.378 313.702 234.089 313.863L230.039 316.306C229.364 316.708 228.946 317.447 228.946 318.234V320.388C228.946 320.388 228.914 320.806 229.396 320.758C229.814 320.709 229.878 320.388 229.878 320.388V318.234C229.878 317.768 230.119 317.351 230.521 317.11L234.297 314.795C234.41 314.731 234.539 314.795 234.539 314.924V317.013C234.539 317.013 234.506 317.431 234.989 317.383C235.406 317.335 235.471 317.013 235.471 317.013V314.635C235.471 314.297 235.294 313.992 235.005 313.831L235.021 313.863Z" fill="#3D5E73"/>
<path d="M229.864 316.435L230.989 315.76L231.07 315.712C231.214 315.632 231.359 315.6 231.455 315.632C231.552 315.68 231.729 316.001 231.825 316.339C231.873 316.483 231.889 316.612 231.905 316.741C231.905 317.207 231.793 317.657 231.632 318.074C232.355 318.01 233.271 317.624 234.091 317.255C235.007 316.821 235.248 316.451 235.264 316.291C235.264 316.258 235.264 316.21 235.264 316.162C235.232 315.937 235.168 315.6 235.071 315.214C235.071 315.198 235.071 315.182 235.071 315.166C235.071 315.15 235.071 315.133 235.071 315.117C234.814 314.008 234.429 312.498 234.461 311.871L231.359 310.007C231.359 310.007 231.263 312.032 231.23 313.205C231.23 313.735 230.154 314.683 229.993 314.86C229.961 314.892 229.913 315.021 229.848 315.214C229.816 315.616 229.929 316.467 229.929 316.467L229.864 316.435Z" fill="#F2CFA4"/>
<path d="M234.911 284.79C234.911 284.79 236.357 291.379 236.357 292.488C236.357 293.597 232.677 295.525 230.555 295.011C229.72 294.545 226.923 288.004 226.923 288.004" fill="white"/>
<path d="M223.339 276.804C223.339 279.744 225.573 284.582 226.907 288.021C230.378 287.314 232.515 286.334 233.689 285.642C232.676 281.85 231.149 276.9 230.378 274.409C230.121 273.573 229.671 272.818 229.06 272.223C229.012 272.223 228.964 272.223 228.916 272.223C226.746 272.175 223.307 273.67 223.323 276.836L223.339 276.804Z" fill="white"/>
<path d="M221.103 266.229L221.955 266.55C223.241 267.048 224.141 267.466 224.848 267.82C225.185 267.98 225.474 268.141 225.732 268.286C225.908 268.382 226.069 268.478 226.23 268.575C226.39 268.671 226.551 268.768 226.712 268.88C226.792 268.928 226.873 268.977 226.937 269.025C226.937 269.025 226.969 269.041 226.985 269.057C226.985 269.057 227.017 269.073 227.033 269.089C227.13 269.153 227.226 269.202 227.323 269.282C227.548 269.427 227.789 269.603 228.046 269.78C228.367 270.005 228.705 270.262 229.058 270.552C229.106 270.584 229.171 270.632 229.219 270.68C229.219 270.68 229.235 270.696 229.267 270.728C229.267 270.728 229.315 270.761 229.331 270.777C229.364 270.793 229.412 270.841 229.46 270.889C229.524 270.937 229.573 271.002 229.653 271.066C229.99 271.403 230.44 271.95 230.955 272.785C231.18 273.139 231.389 273.541 231.614 274.007C231.758 274.312 231.919 274.634 232.047 274.987C232.047 275.003 232.706 276.755 232.996 277.783C233.028 277.928 233.076 278.057 233.108 278.185C233.301 278.86 233.494 279.567 233.703 280.307C234.104 281.769 234.522 283.312 234.876 284.806C234.876 284.806 234.522 285.16 233.671 285.658C233.06 283.36 232.256 280.644 231.549 278.298C231.099 276.771 230.569 275.373 230.183 274.409C228.753 270.841 221.666 267.466 221.055 267.145C221.055 266.614 221.071 266.229 221.071 266.229H221.103Z" fill="white"/>
<path d="M236.341 292.505C236.71 293.229 236.63 300.364 235.682 305.892C234.734 311.421 234.814 312.321 234.814 312.321L230.925 312.16C230.925 312.16 231.069 307.596 230.764 304.687C230.459 301.698 229.96 294.321 229.96 294.321" fill="white"/>
<path d="M215.208 268.447L214.983 269.974L216.189 269.877L215.208 268.447Z" fill="#7EB9F5"/>
<path d="M214.58 268.351V270.086L213.809 269.395L214.58 268.351Z" fill="#7EB9F5"/>
<path d="M215.544 269.218C215.544 269.218 214.901 269.314 214.242 268.768L213.68 269.909L213.856 271.355L214.837 271.757L215.849 270.52" fill="#2D166D"/>
<path d="M221.831 266.504L221.075 265.105C221.075 265.105 218.665 267.548 215.209 268.448L215.82 270.602C215.82 270.602 219.886 269.605 221.831 266.504Z" fill="#E3F6FF"/>
<path d="M214.177 266.712C214.177 266.712 214.161 267.853 214.579 268.351L213.679 270.087C213.679 270.087 212.747 268.046 214.177 266.712Z" fill="#E3F6FF"/>
<path d="M214.853 271.726L215.592 292.361C215.592 292.361 213.358 298.612 212.764 298.644C212.169 298.676 210.53 290.625 210.546 288.038C210.562 285.45 213.873 271.356 213.873 271.356" fill="#2D166D"/>
<path d="M231.183 318.042C231.312 318.058 231.456 318.058 231.617 318.042C232.34 317.978 233.256 317.592 234.076 317.222C234.992 316.788 235.233 316.419 235.249 316.258V316.226C235.249 316.226 235.249 316.178 235.249 316.13C235.201 315.905 235.104 315.374 235.056 315.181C235.056 315.165 235.056 315.149 235.056 315.133C235.056 315.101 235.056 315.085 235.056 315.085L231.874 316.322L230.605 317.094C230.605 317.094 230.492 317.93 231.231 318.042H231.183Z" fill="#F2CFA4"/>
<path d="M407.653 208.745L406.85 211.252C406.85 211.252 404.246 210.641 399.184 209.082C398.991 209.018 398.782 208.954 398.573 208.889C396.548 208.262 394.491 207.491 392.675 206.72C389.606 205.45 387.243 204.213 386.922 203.795C385.974 202.557 383.659 198.009 383.659 198.009L391.952 199.456C391.952 199.456 392.563 199.809 393.479 200.34C393.961 200.613 394.507 200.95 395.102 201.288C396.709 202.252 398.605 203.377 399.859 204.181C402.366 205.804 407.637 208.712 407.637 208.712L407.653 208.745Z" fill="#C5FFFD"/>
<path d="M399.571 208.632L399.201 209.082C399.008 209.018 398.799 208.953 398.59 208.889C396.565 208.262 394.508 207.491 392.692 206.719C392.516 205.964 392.339 205.112 392.387 204.871C392.467 204.454 393.223 201.304 393.496 200.339C393.978 200.613 394.524 200.95 395.119 201.288C394.926 202.38 394.46 205.514 394.99 206.35C395.617 207.362 399.571 208.616 399.571 208.616V208.632Z" fill="#90F4EF"/>
<path d="M382.552 274.187C382.552 274.187 381.909 275.215 381.845 275.311C381.781 275.424 382.745 276.549 383.243 277.015C383.757 277.481 384.432 277.899 384.432 277.899L384.673 277.69C384.673 277.69 384.898 277.802 385.413 278.317C385.927 278.831 386.795 279.779 387.695 280.502C388.595 281.226 389.72 281.917 391.021 281.981C392.323 282.045 392.886 281.242 392.853 280.711C392.837 280.39 392.323 279.474 392.323 279.474" fill="#3C3C82"/>
<path d="M387.886 272.289C387.886 272.289 388.448 272.755 389.493 274.748C390.538 276.741 392.836 279.216 392.996 280.244C393.125 281.112 392.514 281.755 391.052 281.739C389.557 281.739 387.661 280.068 386.568 278.718C385.491 277.368 382.518 275.616 382.325 274.764C382.084 273.655 383.241 272.289 383.611 271.984C383.997 271.679 384.929 270.57 387.886 272.305V272.289Z" fill="white"/>
<path d="M388.625 272.064L388.207 273.623C388.207 273.623 387.709 274.025 386.584 273.687C385.716 273.43 384.479 272.755 384.286 271.63C384.286 271.63 384.414 271.132 384.591 270.457" fill="#E2BD9B"/>
<path d="M398.411 250.015C397.109 254.193 388.527 272.595 388.527 272.595C388.222 272.595 387.949 272.595 387.676 272.595C385.715 272.418 384.317 271.309 384.317 271.309C384.317 271.309 385.426 262.502 386.502 258.436C387.579 254.37 390.44 250.369 389.893 249.067C389.636 248.44 388.463 245.001 387.322 241.594C387.322 241.546 387.29 241.497 387.274 241.433C387.274 241.433 387.274 241.401 387.274 241.385C386.052 237.753 384.879 234.233 384.879 234.233L384.944 231.164L385.104 223.482L393.847 219.962C393.943 220.139 394.024 220.332 394.12 220.541C397.141 227.307 399.697 245.981 398.427 250.047L398.411 250.015Z" fill="#3C3C82"/>
<path d="M387.966 243.49C386.745 239.858 384.848 234.217 384.848 234.217L384.913 231.148L386.6 229.557C386.6 229.557 386.552 232.932 386.809 235.631C387.114 239.071 387.629 242.413 387.966 243.49Z" fill="#2A2A68"/>
<path d="M387.535 284.936L375.241 281.818C375.241 281.818 375.193 282.493 375.241 282.702C375.289 282.911 377.459 283.699 377.796 283.875C377.892 283.924 377.941 283.924 377.973 283.908L378.262 283.843C378.551 284.052 379.05 284.39 379.548 284.711C380.335 285.225 381.476 285.916 382.537 286.27C383.083 286.447 384.835 287.025 386.298 286.672C387.455 286.399 387.744 285.434 387.519 284.92L387.535 284.936Z" fill="#3C3C82"/>
<path d="M376.281 277.175C376.281 277.175 375.172 277.641 375.092 281.257C375.092 281.257 375.108 281.851 375.494 282.173C375.879 282.478 377.197 282.815 378.097 283.362C379.013 283.908 381.327 285.724 383.545 286.255C385.763 286.785 387.065 286.206 387.466 285.756C387.868 285.306 387.659 284.326 386.824 283.748C385.988 283.169 382.324 279.682 381.761 278.91C381.038 277.898 380.026 277.255 379.929 277.078C379.833 276.917 377.068 277.56 376.281 277.175Z" fill="white"/>
<path d="M376.075 274.04C376.075 274.04 376.349 276.804 376.268 277.576C376.188 278.347 379.466 278.797 380.35 277.785C380.35 277.785 380.495 276.017 380.527 274.811" fill="#F2CFA4"/>
<path d="M374.626 221.778C374.626 221.778 372.569 225.233 372.633 228.962C372.697 232.658 373.228 233.574 373.999 236.949C374.771 240.324 374.915 249.5 374.465 250.802C373.999 252.104 373.919 256.379 374.16 260.509C374.385 264.511 375.526 276.033 375.526 276.033C375.526 276.033 377.631 277.769 381.07 276.114C381.07 276.114 381.89 256.138 382.967 253.068C385.345 246.318 385.57 232.996 386.502 230.392C387.418 227.789 387.274 224.092 387.274 222.324C387.274 220.557 374.642 221.794 374.642 221.794L374.626 221.778Z" fill="#3C3C82"/>
<path d="M394.058 215.028C394.267 216.587 394.46 218.033 394.62 219.303C394.701 219.994 394.331 220.653 393.688 220.942C390.04 222.549 380.381 224.429 376.782 224.413C376.669 224.413 376.573 224.413 376.476 224.413C374.033 224.317 373.455 223.24 373.342 222.501C373.342 222.26 373.342 222.019 373.358 221.794C373.423 220.765 373.567 219.704 373.873 218.66C373.937 218.387 374.017 218.129 374.082 217.856C374.162 217.551 374.258 217.246 374.339 216.94C374.387 216.78 374.419 216.635 374.451 216.49C374.483 216.346 374.516 216.201 374.548 216.072C375.351 212.135 373.953 208.519 372.619 204.919C372.25 203.923 371.88 202.91 371.559 201.898C370.9 199.744 370.257 197.575 369.726 195.389C369.678 195.18 369.614 194.955 369.566 194.73C369.276 193.637 368.987 192.464 369.068 191.371C369.212 191.018 369.357 190.68 369.518 190.375C369.743 189.893 369.968 189.491 370.176 189.122C370.691 188.27 371.157 187.707 371.494 187.386C371.703 187.193 371.912 187.016 372.121 186.839C372.475 186.55 372.812 186.293 373.15 186.052C373.407 185.859 373.648 185.682 373.889 185.538C373.985 185.473 374.082 185.409 374.178 185.345C374.194 185.345 374.21 185.329 374.226 185.313C374.226 185.313 374.258 185.313 374.275 185.297C374.355 185.248 374.435 185.184 374.516 185.136C374.676 185.023 374.837 184.927 374.998 184.831C375.158 184.734 375.335 184.638 375.512 184.525C375.785 184.365 376.074 184.204 376.412 184.043C377.135 183.69 378.051 183.256 379.369 182.757L380.237 182.436C380.414 182.372 380.606 182.307 380.799 182.259C381.699 181.986 382.615 181.761 383.531 181.568C384.962 181.263 386.408 181.038 387.79 180.765C388.031 180.765 388.272 180.765 388.513 180.781C389.301 180.829 390.41 181.054 391.374 181.263C393.447 181.745 395.183 183.272 395.697 185.329C395.777 185.634 395.826 185.939 395.842 186.261C396.018 189.186 392.772 205.771 394.042 215.028H394.058Z" fill="white"/>
<path d="M386.745 182.42C386.745 182.42 389.911 183.915 390.489 189.202C391.068 194.489 391.036 205.369 391.132 209.114C391.229 212.858 391.791 224.976 392.096 225.586C392.402 226.197 395.23 224.718 396.725 223.208C396.725 223.208 393.961 212.714 394.009 208.117C394.057 203.537 395.584 192.464 395.873 189.813C396.162 187.161 396.918 182.886 392.932 181.632C388.946 180.379 386.086 180.652 386.086 180.652" fill="#C5FFFD"/>
<path d="M386.936 182.773C386.936 182.773 388.64 184.413 387.274 185.634L386.47 183.914L387.242 183.223" fill="#D5AB80"/>
<path d="M380.077 176.714L380.27 183.368C380.27 183.368 385.268 187.257 387.277 185.65C387.309 184.477 387.293 181.664 387.277 180.025L385.38 179.639L380.077 176.698V176.714Z" fill="#E2B888"/>
<path d="M390.927 171.605C390.927 171.605 391.248 174.819 390.589 177.76C389.93 180.701 389.721 181.36 388.532 181.891C387.343 182.405 386.282 182.469 384.289 181.183C382.297 179.898 381.204 177.825 381.204 177.825C381.204 177.825 380.914 178.017 380.207 177.214C379.098 175.96 378.873 175.334 378.873 173.63C378.873 171.927 379.307 169.773 380.625 167.555C381.959 165.321 386.025 166.045 387.873 166.993C389.721 167.941 390.557 169.741 390.911 171.637L390.927 171.605Z" fill="#F2CFA4"/>
<path d="M391.503 172.97C391.503 172.97 391.503 172.97 391.471 172.97C390.41 173.453 387.437 173.228 386.312 172.151C385.476 172.086 385.428 172.954 385.428 172.954C385.058 174.529 383.965 174.674 383.435 174.947C382.921 175.252 382.792 176.827 382.792 176.827L382.133 176.763C382.133 176.763 382.133 175.252 381.924 174.481C381.667 173.71 380.414 173.131 379.707 174.24C379.128 175.14 379.658 176.233 380.108 177.036V177.615C379.53 177.101 378.533 175.751 378.292 172.472C378.325 171.299 377.296 170.238 378.469 168.39C379.144 167.346 380.237 167.426 380.43 167.105C381.973 164.485 384.689 163.922 386.81 164.694C387.356 164.887 388.224 165.24 388.755 166.156C388.755 166.156 390.394 166.462 390.796 167.876C394.299 169.772 393.897 172.103 391.535 172.954L391.503 172.97Z" fill="#3434A5"/>
<path d="M377.168 213.502C377.233 214.08 377.265 215.768 377.168 216.571C376.831 219.303 376.301 221.746 376.783 224.398C376.67 224.398 376.574 224.398 376.477 224.398C374.035 224.301 373.456 223.225 373.344 222.485C373.344 222.244 373.344 222.003 373.36 221.778C373.424 220.75 373.568 219.689 373.874 218.644C373.938 218.371 374.018 218.114 374.083 217.857C374.163 217.535 374.26 217.23 374.34 216.941C374.388 216.78 374.42 216.635 374.452 216.491C374.485 216.346 374.517 216.202 374.549 216.073C375.352 212.136 373.954 208.52 372.62 204.92C372.829 202.943 373.054 200.565 373.054 200.324C373.054 199.906 377.217 195.068 377.217 195.068C377.217 195.068 376.14 203.923 377.152 213.518L377.168 213.502Z" fill="#DA9C30"/>
<path d="M384.608 206.061C384.608 207.764 384.608 211.525 384.544 215.382C384.544 215.751 384.544 216.137 384.512 216.507C384.415 220.878 384.174 225.105 383.676 226.278C382.921 227.997 378.324 227.403 374.757 226.246C373.584 225.86 372.475 225.426 371.559 224.992C371.559 224.992 373.825 217.342 373.776 213.662C373.744 211.477 372.876 208.134 371.928 205.064C371.285 202.975 370.61 201.014 370.144 199.616C368.987 196.193 367.043 190.906 371.478 187.049C371.478 187.049 375.592 183.674 380.221 182.404C380.221 182.404 380.14 183.208 380.751 184.895C381.073 185.779 381.523 186.936 382.439 188.334C384.849 192.047 384.592 202.252 384.592 206.045L384.608 206.061Z" fill="#C5FFFD"/>
<path d="M376.684 215.382C376.636 212.987 376.202 209.388 376.266 206.141C376.266 205.498 376.282 204.856 376.298 204.229C376.298 202.991 376.475 201.77 376.813 200.597C377.97 196.418 377.231 194.715 377.231 194.715L374.434 199.311C374.434 199.311 374.434 199.472 374.434 199.745L372.634 200.838C372.634 200.838 372.329 202.718 371.959 205.064C372.908 208.134 373.775 211.477 373.808 213.662C373.856 217.343 371.59 224.992 371.59 224.992C372.506 225.426 373.615 225.86 374.788 226.246C375.061 225.057 376.074 220.669 376.507 218.018C376.62 217.327 377.15 216.764 377.841 216.636C377.841 216.636 377.857 216.636 377.873 216.636C378.741 216.507 383.273 216.507 384.559 216.507C384.559 216.121 384.575 215.752 384.591 215.382H376.716H376.684Z" fill="#90F4EF"/>
<path d="M366.656 200.836C366.656 200.836 364.743 209.933 364.743 211.074C364.743 212.215 367.797 212.777 369.95 212.247C372.104 211.716 374.193 203.118 374.193 203.118" fill="#F2CFA4"/>
<path d="M377.954 193.203C377.954 196.208 375.672 201.126 374.322 204.629C370.787 203.906 368.601 202.909 367.412 202.202C368.456 198.329 369.999 193.283 370.787 190.744C371.06 189.892 371.51 189.137 372.12 188.51C372.169 188.51 372.217 188.51 372.265 188.51C374.483 188.462 377.986 189.972 377.97 193.203H377.954Z" fill="#E9AC38"/>
<path d="M368.358 196C368.439 195.341 368.535 194.73 368.615 194.167C368.535 194.73 368.455 195.341 368.358 196Z" fill="#CD6158"/>
<path d="M369.05 191.29C369.05 191.29 369.05 191.386 369.033 191.435C369.033 191.435 369.05 191.338 369.066 191.29H369.05Z" fill="#CD6158"/>
<path d="M369.02 191.451C369.02 191.451 369.036 191.338 369.052 191.29C369.052 191.322 369.052 191.387 369.036 191.435L369.02 191.451Z" fill="#CD6158"/>
<path d="M387.259 212.697C387.259 212.697 387.966 212.922 387.918 213.822C387.87 214.529 387.323 216.409 385.572 216.296C383.338 216.152 384.72 212.938 386.199 212.439" fill="#90F4EF"/>
<path d="M390.023 213.342C389.477 213.374 388.063 213.117 388.063 213.117L386.745 216.009C387.388 216.154 387.854 217.022 388.577 217.199C389.3 217.375 389.911 217.424 389.911 217.424C389.911 217.424 389.557 217.761 389.831 218.099C390.104 218.436 391.373 218.629 391.952 218.709C392.53 218.79 393.173 218.259 393.607 217.697C394.041 217.134 394.362 215.624 394.154 215.238C393.945 214.852 393.125 214.033 393.125 214.033C392.08 213.406 391.341 213.277 391.341 213.277C391.341 213.277 390.2 213.31 390.007 213.326L390.023 213.342Z" fill="#F2CFA4"/>
<path d="M396.582 216.443C397.514 216.668 397.851 216.283 397.707 216.106C397.562 215.913 393.496 213.872 392.869 213.615C392.468 213.454 392.018 213.406 391.359 213.293L391.134 213.358C391.134 213.358 391.889 214.113 392.468 215.19L394.364 215.624C394.364 215.624 395.65 216.218 396.582 216.443Z" fill="#F2CFA4"/>
<path d="M413.856 198.137L412.892 197.414C412.892 197.414 412.731 197.333 412.635 197.397L399.457 204.887C399.103 205.095 398.814 205.385 398.621 205.738L388.979 223.818C388.882 223.995 388.947 224.172 389.059 224.268L390.023 224.991L391.341 223.288L402.398 217.004C402.671 216.859 402.88 216.634 403.025 216.361L412.217 199.101L413.856 198.137Z" fill="white"/>
<path d="M413.937 198.442L403.989 217.101C403.845 217.374 403.636 217.599 403.363 217.743L390.474 225.072C390.136 225.265 389.767 224.895 389.943 224.557L399.586 206.478C399.779 206.124 400.068 205.819 400.422 205.626L413.6 198.137C413.809 198.024 414.034 198.249 413.921 198.458L413.937 198.442Z" fill="url(#paint49_linear_687_61676)"/>
<path d="M408.78 208.116C408.78 208.116 407.591 208.646 406.739 209.145C406.241 209.37 404.81 210.061 404.73 210.591C404.698 210.8 404.827 210.88 405.003 210.896C404.537 211.17 404.119 211.507 404.071 211.78C404.023 212.086 404.296 212.134 404.602 212.086C404.537 212.166 404.505 212.246 404.489 212.311C404.441 212.6 404.682 212.648 404.955 212.616C405.019 213.05 405.968 212.712 406.144 212.648C406.241 212.616 406.9 212.359 406.996 212.327C407.928 212.021 409.792 208.614 408.796 208.084L408.78 208.116Z" fill="#F2CFA4"/>
<path d="M365.9 204.501C365.9 204.501 363.971 212.81 364.904 214.048C366.72 216.49 387.66 215.992 387.66 215.992L389.524 213.501L371.766 208.776" fill="#F2CFA4"/>
<path d="M369.307 190.052C369.307 190.052 367.475 195.292 365.836 201.334C364.196 207.377 362.782 213.114 364.164 214.898C365.096 216.103 385.571 216.28 385.571 216.28C385.571 216.28 384.655 216.28 385.458 214.095C385.828 213.098 386.744 212.552 387.258 212.696L382.356 211.041L372.875 208.357C372.875 208.357 376.7 199.679 377.664 196.577C378.644 193.476 378.226 190.824 376.185 189.474C374.144 188.124 370.914 187.353 369.291 190.052H369.307Z" fill="#C5FFFD"/>
<path style="mix-blend-mode:hard-light" opacity="0.6" d="M355.04 54.9142V137.053L265.862 82.1383V0L355.04 54.9142Z" fill="url(#paint50_linear_687_61676)"/>
<path d="M351.134 58.6266V129.724L269.51 79.4705V52.8411C272.178 49.9323 275.424 47.4895 279.152 46.6056C292.604 43.3914 294.58 67.8513 306.457 72.0619C316.774 75.71 334.195 51.8929 351.134 58.6105V58.6266Z" fill="url(#paint51_linear_687_61676)"/>
<path d="M269.077 6.36377V79.7113L351.569 130.495V57.1478L269.077 6.36377ZM302.617 28.0273L318.093 37.5574V108.864L302.617 99.3338V28.0273ZM301.749 98.8035L286.273 89.2735V17.983L301.749 27.5131V98.8196V98.8035ZM318.961 38.0877L334.437 47.6177V118.924L318.961 109.394V38.0877ZM269.945 7.92264L285.421 17.4527V88.7592L269.945 79.2292V7.92264ZM350.701 128.952L335.289 119.471V48.1481L350.701 57.6299V128.936V128.952Z" fill="url(#paint52_linear_687_61676)"/>
<path style="mix-blend-mode:hard-light" opacity="0.6" d="M474.973 182.195V268.255L390.344 320.164V234.12L474.973 182.195Z" fill="url(#paint53_linear_687_61676)"/>
<path d="M471.551 194.28V266.406L471.358 266.518L393.88 314.056V313.108L470.747 265.956V194.762L471.551 194.28Z" fill="url(#paint54_linear_687_61676)"/>
<path d="M413.536 232.047V295.093L400.39 303.144V240.098L413.536 232.047Z" fill="url(#paint55_linear_687_61676)"/>
<path d="M431.408 241.096V284.134L418.278 292.185V249.163L431.408 241.096Z" fill="url(#paint56_linear_687_61676)"/>
<path d="M449.277 221.811V273.173L436.147 281.225V229.862L449.277 221.811Z" fill="url(#paint57_linear_687_61676)"/>
<path d="M467.131 234.555V262.213L454.017 270.264V242.606L467.131 234.555Z" fill="url(#paint58_linear_687_61676)"/>
<path style="mix-blend-mode:hard-light" opacity="0.6" d="M528.413 226.6V244.679L510.639 255.591V237.512L528.413 226.6Z" fill="url(#paint59_linear_687_61676)"/>
<path style="mix-blend-mode:hard-light" opacity="0.6" d="M270.038 287.911V305.99L252.264 316.903V298.823L270.038 287.911Z" fill="url(#paint60_linear_687_61676)"/>
<path style="mix-blend-mode:hard-light" opacity="0.6" d="M220.108 62.0664V86.3656L196.227 101.006V76.7231L220.108 62.0664Z" fill="url(#paint61_linear_687_61676)"/>
<path style="mix-blend-mode:hard-light" opacity="0.6" d="M128.166 146.374V158.475L116.273 165.772V153.67L128.166 146.374Z" fill="url(#paint62_linear_687_61676)"/>
<path style="mix-blend-mode:hard-light" opacity="0.6" d="M88.6968 390.684V402.769L76.7882 410.065V397.98L88.6968 390.684Z" fill="url(#paint63_linear_687_61676)"/>
<path style="mix-blend-mode:hard-light" opacity="0.6" d="M387.79 78.5386V90.64L375.897 97.9361V85.8348L387.79 78.5386Z" fill="url(#paint64_linear_687_61676)"/>
<path style="mix-blend-mode:hard-light" opacity="0.6" d="M97.6785 194.603V212.682L79.888 223.594V205.515L97.6785 194.603Z" fill="url(#paint65_linear_687_61676)"/>
<path style="mix-blend-mode:hard-light" opacity="0.6" d="M130.723 236.74V321.128L213.713 372.041V287.653L130.723 236.74Z" fill="url(#paint66_linear_687_61676)"/>
<path d="M143.482 304.656V308.995L200.967 344.254V339.915L143.482 304.656Z" fill="url(#paint67_linear_687_61676)"/>
<path d="M143.482 312.739V317.078L200.967 352.338V348.015L143.482 312.739Z" fill="url(#paint68_linear_687_61676)"/>
<path d="M167.684 272.305C167.684 272.305 162.606 276.725 148.061 267.725C148.061 267.725 149.668 297.022 167.684 312.113C185.699 319.281 187.306 291.992 187.306 291.992C172.762 283.009 167.684 272.305 167.684 272.305Z" fill="url(#paint69_linear_687_61676)"/>
<path d="M269.718 169.229V169.309C269.718 169.663 269.605 170 269.38 170.274C268.368 171.447 266.005 171.945 265.507 172.041C265.475 172.041 265.443 172.041 265.427 172.041C264.077 172.25 262.582 172.331 261.923 172.395C261.104 172.475 260.621 172.62 260.621 172.62V172.765C260.364 172.829 259.513 173.038 258.773 173.07C258.066 173.086 257.214 172.99 256.764 172.62C256.266 172.186 256.218 171.64 256.218 171.64V171.286V171.125L257.97 170.997L258.838 170.932L259.641 170.884L260.38 170.836L269.718 169.197V169.229Z" fill="#101049"/>
<path d="M262.118 167.382C262.118 167.382 263.805 168.009 265.026 168.009C266.248 168.009 268.626 167.977 269.237 168.411C269.542 168.62 269.719 168.877 269.719 169.182C269.719 170.821 265.846 171.818 263.532 171.995C261.218 172.171 261.089 172.155 259.98 172.332C258.887 172.509 257.73 172.605 257.039 172.252C255.834 171.657 255.754 169.857 256.493 168.652C257.232 167.463 262.102 167.382 262.102 167.382H262.118Z" fill="#FBFBF9"/>
<path d="M257.07 165.87C257.07 165.87 256.989 167.702 256.957 168.024C256.941 168.345 256.764 168.634 256.813 168.94C256.893 169.406 257.552 170.145 259.593 169.936C261.088 169.775 262.357 168.827 262.566 168.233C262.743 167.734 262.357 167.638 262.277 167.461C262.164 167.156 262.277 164.44 262.068 165.372" fill="#E8CAAF"/>
<path d="M259.352 160.791C259.352 160.791 259.528 161.546 259.287 162.318C259.046 163.089 258.612 163.619 258.098 164.182C257.6 164.744 256.764 165.419 256.186 165.757C255.607 166.094 254.707 166.769 254.579 166.882C254.113 167.316 253.438 168.376 253.438 168.376V168.698C253.438 168.698 252.779 169.517 251.847 169.951C251.156 170.273 249.87 170.53 248.841 170.128C247.765 169.71 247.588 168.65 247.556 168.425C247.524 168.2 247.556 167.348 247.556 167.348" fill="#101049"/>
<path d="M252.216 161.949C252.216 161.949 254.45 161.241 255.719 160.325C257.455 159.072 258.724 159.393 259.158 160.133C259.592 160.888 259.769 163.379 256.073 165.532C254.61 166.384 253.967 167.091 253.517 167.798C253.164 168.329 252.521 169.004 251.782 169.357C251.155 169.663 250.464 169.743 249.853 169.695C247.314 169.486 246.784 166.915 248.021 164.97C249.259 163.025 252.232 161.933 252.232 161.933L252.216 161.949Z" fill="#FBFBF9"/>
<path d="M248.376 163.09L248.279 165.002C248.279 165.002 248.022 165.436 248.119 165.822C248.247 166.336 249.71 167.333 251.719 166.272C253.969 165.083 253.599 164.295 253.615 164.199C253.39 163.379 253.406 163.186 253.406 162.543" fill="#E8CAAF"/>
<path d="M246.349 145.378C246.06 151.485 248.052 163.651 248.052 163.651C248.052 163.651 249.226 165.563 253.742 163.024C253.742 163.024 254.433 144.751 255.204 139.593C255.429 138.066 255.686 136.716 256.04 135.398C256.875 132.361 257.647 129.5 257.856 125.45C258 122.557 257.486 116.659 256.924 111.468C256.361 106.229 255.75 101.697 255.75 101.697C255.75 101.697 251.138 101.842 247.844 98.5957C247.844 98.5957 242.444 105.908 245.883 113.606C246.67 115.374 247.104 117.286 247.249 119.231C247.442 121.818 247.699 125.37 247.827 128.455C248.036 133.47 248.406 134.9 248.181 135.478C247.956 136.057 246.622 139.271 246.349 145.378Z" fill="#2D166D"/>
<path d="M252.648 118.089C254.175 122.01 255.782 131.155 256.039 135.381C256.875 132.344 257.646 129.499 257.855 125.433C258 122.541 257.486 116.643 256.923 111.452C255.188 110.102 252.07 107.611 252.07 107.611C252.07 107.611 251.122 114.168 252.664 118.089H252.648Z" fill="#161143"/>
<path d="M265.634 101.056C265.634 101.056 267.595 108.641 267.964 116.564C268.334 124.487 266.566 135.833 266.197 138.517C265.827 141.201 264.959 145.395 264.204 152.097C263.497 158.397 262.95 166.448 262.95 166.448C262.95 166.448 258.386 169.052 256.602 166.786C256.602 166.786 255.493 148.947 256.008 143.419C256.522 137.89 257.663 137.504 257.518 135.688C257.374 133.872 255.735 120.051 254.867 118.75C253.999 117.448 249.483 110.537 253.854 101.377C253.854 101.377 258.868 102.631 265.634 101.056Z" fill="#2D166D"/>
<path d="M257.521 80.999L257.923 80.8222L258.293 80.9507L268.369 65.4745C268.578 65.1691 268.98 65.0566 269.301 65.2334L290.033 76.6759L290.595 76.4027L290.884 77.2866C290.965 77.4794 290.965 77.6884 290.852 77.8812L280.454 93.8557C280.229 94.2092 279.779 94.3217 279.41 94.1128L258.148 82.365C257.971 82.2686 257.875 82.1078 257.859 81.9311L257.553 80.9829L257.521 80.999Z" fill="#F8FAFF"/>
<path d="M257.794 81.3207L279.056 93.0686C279.41 93.2614 279.876 93.1489 280.101 92.8114L290.498 76.837C290.691 76.5316 290.595 76.1298 290.273 75.9531L268.963 64.1892C268.642 64.0124 268.24 64.1088 268.031 64.4142L257.585 80.469C257.392 80.7583 257.489 81.16 257.794 81.3207Z" fill="url(#paint70_linear_687_61676)"/>
<path d="M258.79 81.1597L278.75 92.1843C279.088 92.3771 279.522 92.2646 279.731 91.9432L289.486 76.9652C289.679 76.6759 289.582 76.2902 289.277 76.1295L269.285 65.0888C268.979 64.9281 268.594 65.0084 268.417 65.3138L258.614 80.3722C258.437 80.6454 258.533 81.015 258.807 81.1757L258.79 81.1597Z" stroke="#F8FAFF" stroke-width="0.241063" stroke-miterlimit="10"/>
<path d="M280.807 86.0134C280.807 86.0134 281.273 85.4992 281.37 85.1778C281.466 84.8563 281.53 84.3742 281.916 83.876C282.318 83.3778 283.443 81.4172 283.684 81.5618C283.909 81.6904 284.15 82.2689 283.957 83.0243C283.78 83.7796 283.459 84.2778 283.443 84.4706C283.443 84.6635 284.745 84.6956 285.548 84.4385C285.982 84.2939 287.284 83.2332 287.605 82.8796C287.911 82.8796 287.493 85.1938 287.3 85.9009C287.155 86.4795 285.307 88.3276 285.307 88.3276" fill="#E8CAAF"/>
<path d="M258.788 78.1368L261.151 75.8547C261.472 75.5494 261.826 75.3083 262.227 75.1315C262.581 74.9708 263.047 74.7458 263.336 74.5048C263.899 74.0548 264.317 73.0263 264.526 72.5923C264.751 72.1584 265.988 70.9692 266.117 70.6478C266.245 70.3264 266.197 69.7157 265.763 69.7478C265.409 69.7799 263.561 71.2745 263.465 71.4192L264.365 70.0371C264.365 70.0371 262.533 70.1978 261.472 70.7603C260.411 71.3227 260.138 72.8173 259.72 73.1709C259.302 73.5405 256.458 75.7583 256.458 75.7583" fill="#E8CAAF"/>
<path d="M263.482 54.7871C263.482 54.7871 264.237 57.5834 262.373 59.3191C260.509 61.0548 261.328 55.5103 261.328 55.5103" fill="#2D166D"/>
<path d="M252.054 75.4373L258.499 74.698L259.463 75.0355C259.463 75.0355 259.061 71.516 259.367 68.8321C259.431 68.2857 259.913 67.9 260.411 68.125C261.343 68.5429 261.954 68.3822 261.954 68.3822C263.063 67.659 263.127 62.9984 263.031 60.7646C262.918 58.4182 262.709 55.8147 262.709 55.8147C262.083 55.0594 256.249 55.7826 254.32 57.1325C252.376 58.4664 252.504 66.2769 252.569 67.7393C252.649 69.2018 252.569 72.6731 252.569 72.6731L252.038 75.4533L252.054 75.4373Z" fill="#E8CAAF"/>
<path d="M248.28 92.8752C248.57 96.9411 246.497 100.943 246.497 100.943C246.497 100.943 250.916 104.414 257.891 105.346C263.034 106.037 266.296 104.012 266.296 104.012C266.296 104.012 265.476 99.9303 265.139 96.6036C265.026 95.5108 264.962 94.4984 264.994 93.7109C265.058 92.3931 265.396 89.9342 265.701 87.379C266.119 83.8916 266.505 80.1953 266.055 78.8292C265.283 76.4508 259.418 72.7384 259.418 72.7384C259.418 72.7384 252.395 73.2205 252.555 71.1956C252.555 71.1956 248.763 70.6331 247.011 71.4527C245.259 72.2723 244.97 77.0614 245.516 81.0952C246.047 85.113 247.991 88.8093 248.28 92.8913V92.8752Z" fill="#FBFBF9"/>
<path d="M259.464 83.3774C259.464 83.3774 260.557 88.6165 262.035 92.9075C262.035 92.9075 262.63 92.9396 263.466 92.9075L265.137 96.5877C265.024 95.4949 264.96 94.4824 264.992 93.6949C265.057 92.3771 265.394 89.9183 265.699 87.363L265.426 86.4309L259.432 83.3774H259.464Z" fill="#E8E8E8"/>
<path d="M263.129 89.7734C263.129 89.7734 265.829 95.1732 266.922 96.8285C268.272 98.8856 268.979 99.657 271.502 97.8249C271.502 97.8249 280.984 89.1306 281.868 89.0342C282.752 88.9538 282.896 89.0984 283.877 88.9538C284.857 88.8092 285.307 88.327 285.307 88.327C285.307 88.327 283.475 85.7718 283.202 84.2129C282.479 84.6789 281.129 85.8039 280.245 86.3182C279.329 86.8646 273.656 89.8859 270.683 91.5894C270.441 91.043 269.461 88.1503 269.252 87.636C269.252 87.6521 263.29 89.8698 263.145 89.7895L263.129 89.7734Z" fill="#E8CAAF"/>
<path d="M266.069 78.813L269.958 88.4394C269.958 88.4394 266.664 91.8625 263.08 91.8625C263.08 91.8625 259.335 84.8074 259.126 81.6093" fill="#FBFBF9"/>
<path d="M252.602 69.9907L252.265 71.1318C252.265 71.1318 252.265 72.3049 253.566 72.8353C255.784 73.7192 259.095 73.2692 259.898 73.0281L259.416 71.4853C259.416 71.4853 254.868 72.1442 252.602 70.0068V69.9907Z" fill="#FBFBF9"/>
<path d="M248.472 57.9531C249.083 53.7747 252.04 50.223 259.095 51.4123C260.574 51.6534 263.836 52.939 263.498 55.5907C263.177 58.2424 260.3 57.4871 260.3 60.4441C260.3 62.4851 260.574 62.4691 259.786 62.2441C258.356 61.8423 258.275 64.3976 258.324 67.451C258.356 70.1509 258.661 74.474 259.883 76.0007C259.641 76.29 248.954 73.5901 247.669 72.5776C247.492 70.5206 247.926 61.6816 248.472 57.9531Z" fill="#3434A5"/>
</g>
<defs>
<filter id="filter0_d_687_61676" x="459.356" y="370.844" width="76.2483" height="59.0466" filterUnits="userSpaceOnUse" color-interpolation-filters="sRGB">
<feFlood flood-opacity="0" result="BackgroundImageFix"/>
<feColorMatrix in="SourceAlpha" type="matrix" values="0 0 0 0 0 0 0 0 0 0 0 0 0 0 0 0 0 0 127 0" result="hardAlpha"/>
<feOffset/>
<feGaussianBlur stdDeviation="8.03544"/>
<feColorMatrix type="matrix" values="0 0 0 0 0.670588 0 0 0 0 0.882353 0 0 0 0 1 0 0 0 0.75 0"/>
<feBlend mode="normal" in2="BackgroundImageFix" result="effect1_dropShadow_687_61676"/>
<feBlend mode="normal" in="SourceGraphic" in2="effect1_dropShadow_687_61676" result="shape"/>
</filter>
<filter id="filter1_d_687_61676" x="476.408" y="448.289" width="76.2483" height="59.0466" filterUnits="userSpaceOnUse" color-interpolation-filters="sRGB">
<feFlood flood-opacity="0" result="BackgroundImageFix"/>
<feColorMatrix in="SourceAlpha" type="matrix" values="0 0 0 0 0 0 0 0 0 0 0 0 0 0 0 0 0 0 127 0" result="hardAlpha"/>
<feOffset/>
<feGaussianBlur stdDeviation="8.03544"/>
<feColorMatrix type="matrix" values="0 0 0 0 0.670588 0 0 0 0 0.882353 0 0 0 0 1 0 0 0 0.75 0"/>
<feBlend mode="normal" in2="BackgroundImageFix" result="effect1_dropShadow_687_61676"/>
<feBlend mode="normal" in="SourceGraphic" in2="effect1_dropShadow_687_61676" result="shape"/>
</filter>
<filter id="filter2_d_687_61676" x="337.127" y="471.531" width="54.6531" height="45.8542" filterUnits="userSpaceOnUse" color-interpolation-filters="sRGB">
<feFlood flood-opacity="0" result="BackgroundImageFix"/>
<feColorMatrix in="SourceAlpha" type="matrix" values="0 0 0 0 0 0 0 0 0 0 0 0 0 0 0 0 0 0 127 0" result="hardAlpha"/>
<feOffset/>
<feGaussianBlur stdDeviation="8.03544"/>
<feColorMatrix type="matrix" values="0 0 0 0 0.670588 0 0 0 0 0.882353 0 0 0 0 1 0 0 0 0.75 0"/>
<feBlend mode="normal" in2="BackgroundImageFix" result="effect1_dropShadow_687_61676"/>
<feBlend mode="normal" in="SourceGraphic" in2="effect1_dropShadow_687_61676" result="shape"/>
</filter>
<filter id="filter3_d_687_61676" x="12.4765" y="322.649" width="95.0713" height="70.4948" filterUnits="userSpaceOnUse" color-interpolation-filters="sRGB">
<feFlood flood-opacity="0" result="BackgroundImageFix"/>
<feColorMatrix in="SourceAlpha" type="matrix" values="0 0 0 0 0 0 0 0 0 0 0 0 0 0 0 0 0 0 127 0" result="hardAlpha"/>
<feOffset/>
<feGaussianBlur stdDeviation="8.03544"/>
<feColorMatrix type="matrix" values="0 0 0 0 0.670588 0 0 0 0 0.882353 0 0 0 0 1 0 0 0 0.75 0"/>
<feBlend mode="normal" in2="BackgroundImageFix" result="effect1_dropShadow_687_61676"/>
<feBlend mode="normal" in="SourceGraphic" in2="effect1_dropShadow_687_61676" result="shape"/>
</filter>
<filter id="filter4_d_687_61676" x="405.256" y="130.327" width="63.9742" height="51.5114" filterUnits="userSpaceOnUse" color-interpolation-filters="sRGB">
<feFlood flood-opacity="0" result="BackgroundImageFix"/>
<feColorMatrix in="SourceAlpha" type="matrix" values="0 0 0 0 0 0 0 0 0 0 0 0 0 0 0 0 0 0 127 0" result="hardAlpha"/>
<feOffset/>
<feGaussianBlur stdDeviation="8.03544"/>
<feColorMatrix type="matrix" values="0 0 0 0 0.670588 0 0 0 0 0.882353 0 0 0 0 1 0 0 0 0.75 0"/>
<feBlend mode="normal" in2="BackgroundImageFix" result="effect1_dropShadow_687_61676"/>
<feBlend mode="normal" in="SourceGraphic" in2="effect1_dropShadow_687_61676" result="shape"/>
</filter>
<filter id="filter5_d_687_61676" x="60.7148" y="225.393" width="56.1235" height="46.7785" filterUnits="userSpaceOnUse" color-interpolation-filters="sRGB">
<feFlood flood-opacity="0" result="BackgroundImageFix"/>
<feColorMatrix in="SourceAlpha" type="matrix" values="0 0 0 0 0 0 0 0 0 0 0 0 0 0 0 0 0 0 127 0" result="hardAlpha"/>
<feOffset/>
<feGaussianBlur stdDeviation="8.03544"/>
<feColorMatrix type="matrix" values="0 0 0 0 0.670588 0 0 0 0 0.882353 0 0 0 0 1 0 0 0 0.75 0"/>
<feBlend mode="normal" in2="BackgroundImageFix" result="effect1_dropShadow_687_61676"/>
<feBlend mode="normal" in="SourceGraphic" in2="effect1_dropShadow_687_61676" result="shape"/>
</filter>
<filter id="filter6_d_687_61676" x="101.582" y="217.045" width="63.9742" height="51.5114" filterUnits="userSpaceOnUse" color-interpolation-filters="sRGB">
<feFlood flood-opacity="0" result="BackgroundImageFix"/>
<feColorMatrix in="SourceAlpha" type="matrix" values="0 0 0 0 0 0 0 0 0 0 0 0 0 0 0 0 0 0 127 0" result="hardAlpha"/>
<feOffset/>
<feGaussianBlur stdDeviation="8.03544"/>
<feColorMatrix type="matrix" values="0 0 0 0 0.670588 0 0 0 0 0.882353 0 0 0 0 1 0 0 0 0.75 0"/>
<feBlend mode="normal" in2="BackgroundImageFix" result="effect1_dropShadow_687_61676"/>
<feBlend mode="normal" in="SourceGraphic" in2="effect1_dropShadow_687_61676" result="shape"/>
</filter>
<filter id="filter7_d_687_61676" x="144.46" y="88.6166" width="217.24" height="145" filterUnits="userSpaceOnUse" color-interpolation-filters="sRGB">
<feFlood flood-opacity="0" result="BackgroundImageFix"/>
<feColorMatrix in="SourceAlpha" type="matrix" values="0 0 0 0 0 0 0 0 0 0 0 0 0 0 0 0 0 0 127 0" result="hardAlpha"/>
<feOffset/>
<feGaussianBlur stdDeviation="8.03544"/>
<feColorMatrix type="matrix" values="0 0 0 0 0.670588 0 0 0 0 0.882353 0 0 0 0 1 0 0 0 0.75 0"/>
<feBlend mode="normal" in2="BackgroundImageFix" result="effect1_dropShadow_687_61676"/>
<feBlend mode="normal" in="SourceGraphic" in2="effect1_dropShadow_687_61676" result="shape"/>
</filter>
<filter id="filter8_d_687_61676" x="277.897" y="201.466" width="217.24" height="145" filterUnits="userSpaceOnUse" color-interpolation-filters="sRGB">
<feFlood flood-opacity="0" result="BackgroundImageFix"/>
<feColorMatrix in="SourceAlpha" type="matrix" values="0 0 0 0 0 0 0 0 0 0 0 0 0 0 0 0 0 0 127 0" result="hardAlpha"/>
<feOffset/>
<feGaussianBlur stdDeviation="8.03544"/>
<feColorMatrix type="matrix" values="0 0 0 0 0.670588 0 0 0 0 0.882353 0 0 0 0 1 0 0 0 0.75 0"/>
<feBlend mode="normal" in2="BackgroundImageFix" result="effect1_dropShadow_687_61676"/>
<feBlend mode="normal" in="SourceGraphic" in2="effect1_dropShadow_687_61676" result="shape"/>
</filter>
<filter id="filter9_d_687_61676" x="108.927" y="281.372" width="217.24" height="145" filterUnits="userSpaceOnUse" color-interpolation-filters="sRGB">
<feFlood flood-opacity="0" result="BackgroundImageFix"/>
<feColorMatrix in="SourceAlpha" type="matrix" values="0 0 0 0 0 0 0 0 0 0 0 0 0 0 0 0 0 0 127 0" result="hardAlpha"/>
<feOffset/>
<feGaussianBlur stdDeviation="8.03544"/>
<feColorMatrix type="matrix" values="0 0 0 0 0.670588 0 0 0 0 0.882353 0 0 0 0 1 0 0 0 0.75 0"/>
<feBlend mode="normal" in2="BackgroundImageFix" result="effect1_dropShadow_687_61676"/>
<feBlend mode="normal" in="SourceGraphic" in2="effect1_dropShadow_687_61676" result="shape"/>
</filter>
<linearGradient id="paint0_linear_687_61676" x1="475.411" y1="400.374" x2="519.526" y2="400.374" gradientUnits="userSpaceOnUse">
<stop stop-color="#66BBF2"/>
<stop offset="1" stop-color="#7AF4FD"/>
</linearGradient>
<linearGradient id="paint1_linear_687_61676" x1="492.463" y1="477.804" x2="536.593" y2="477.804" gradientUnits="userSpaceOnUse">
<stop stop-color="#66BBF2"/>
<stop offset="1" stop-color="#7AF4FD"/>
</linearGradient>
<linearGradient id="paint2_linear_687_61676" x1="353.19" y1="494.452" x2="375.721" y2="494.452" gradientUnits="userSpaceOnUse">
<stop stop-color="#66BBF2"/>
<stop offset="1" stop-color="#7AF4FD"/>
</linearGradient>
<linearGradient id="paint3_linear_687_61676" x1="28.5433" y1="357.882" x2="91.4769" y2="357.882" gradientUnits="userSpaceOnUse">
<stop stop-color="#66BBF2"/>
<stop offset="1" stop-color="#7AF4FD"/>
</linearGradient>
<linearGradient id="paint4_linear_687_61676" x1="421.347" y1="156.08" x2="453.151" y2="156.08" gradientUnits="userSpaceOnUse">
<stop stop-color="#66BBF2"/>
<stop offset="1" stop-color="#7AF4FD"/>
</linearGradient>
<linearGradient id="paint5_linear_687_61676" x1="76.7897" y1="248.793" x2="100.767" y2="248.793" gradientUnits="userSpaceOnUse">
<stop stop-color="#66BBF2"/>
<stop offset="1" stop-color="#7AF4FD"/>
</linearGradient>
<linearGradient id="paint6_linear_687_61676" x1="117.657" y1="242.782" x2="149.462" y2="242.782" gradientUnits="userSpaceOnUse">
<stop stop-color="#66BBF2"/>
<stop offset="1" stop-color="#7AF4FD"/>
</linearGradient>
<linearGradient id="paint7_linear_687_61676" x1="268.818" y1="420.898" x2="59.5108" y2="398.897" gradientUnits="userSpaceOnUse">
<stop stop-color="#9AFFFF" stop-opacity="0"/>
<stop offset="1" stop-color="#B0FFFD"/>
</linearGradient>
<linearGradient id="paint8_linear_687_61676" x1="66.6778" y1="313.014" x2="71.2419" y2="313.014" gradientUnits="userSpaceOnUse">
<stop stop-color="#9AFFFF"/>
<stop offset="1" stop-color="#B0FFFD"/>
</linearGradient>
<linearGradient id="paint9_linear_687_61676" x1="96.5547" y1="414.42" x2="101.119" y2="414.42" gradientUnits="userSpaceOnUse">
<stop stop-color="#9AFFFF"/>
<stop offset="1" stop-color="#B0FFFD"/>
</linearGradient>
<linearGradient id="paint10_linear_687_61676" x1="425.672" y1="258.95" x2="425.672" y2="164.903" gradientUnits="userSpaceOnUse">
<stop stop-color="#9AFFFF" stop-opacity="0"/>
<stop offset="1" stop-color="#B0FFFD"/>
</linearGradient>
<linearGradient id="paint11_linear_687_61676" x1="397.065" y1="165.402" x2="401.645" y2="165.402" gradientUnits="userSpaceOnUse">
<stop stop-color="#9AFFFF"/>
<stop offset="1" stop-color="#B0FFFD"/>
</linearGradient>
<linearGradient id="paint12_linear_687_61676" x1="519.622" y1="366.979" x2="519.622" y2="272.933" gradientUnits="userSpaceOnUse">
<stop stop-color="#9AFFFF" stop-opacity="0"/>
<stop offset="1" stop-color="#B0FFFD"/>
</linearGradient>
<linearGradient id="paint13_linear_687_61676" x1="491.015" y1="273.431" x2="495.595" y2="273.431" gradientUnits="userSpaceOnUse">
<stop stop-color="#9AFFFF"/>
<stop offset="1" stop-color="#B0FFFD"/>
</linearGradient>
<linearGradient id="paint14_linear_687_61676" x1="248.666" y1="176.379" x2="248.666" y2="270.426" gradientUnits="userSpaceOnUse">
<stop stop-color="#9AFFFF" stop-opacity="0"/>
<stop offset="1" stop-color="#B0FFFD"/>
</linearGradient>
<linearGradient id="paint15_linear_687_61676" x1="277.257" y1="269.911" x2="272.693" y2="269.911" gradientUnits="userSpaceOnUse">
<stop stop-color="#9AFFFF"/>
<stop offset="1" stop-color="#B0FFFD"/>
</linearGradient>
<linearGradient id="paint16_linear_687_61676" x1="117.882" y1="380.914" x2="-0.882249" y2="368.427" gradientUnits="userSpaceOnUse">
<stop stop-color="#B0FFFD"/>
<stop offset="1" stop-color="#9AFFFF" stop-opacity="0"/>
</linearGradient>
<linearGradient id="paint17_linear_687_61676" x1="117.657" y1="360.23" x2="122.238" y2="360.23" gradientUnits="userSpaceOnUse">
<stop stop-color="#9AFFFF"/>
<stop offset="1" stop-color="#B0FFFD"/>
</linearGradient>
<linearGradient id="paint18_linear_687_61676" x1="488.957" y1="269.798" x2="370.193" y2="257.311" gradientUnits="userSpaceOnUse">
<stop stop-color="#B0FFFD"/>
<stop offset="1" stop-color="#9AFFFF" stop-opacity="0"/>
</linearGradient>
<linearGradient id="paint19_linear_687_61676" x1="488.749" y1="249.116" x2="493.313" y2="249.116" gradientUnits="userSpaceOnUse">
<stop stop-color="#9AFFFF"/>
<stop offset="1" stop-color="#B0FFFD"/>
</linearGradient>
<linearGradient id="paint20_linear_687_61676" x1="327.125" y1="438.35" x2="445.889" y2="450.821" gradientUnits="userSpaceOnUse">
<stop stop-color="#B0FFFD"/>
<stop offset="1" stop-color="#9AFFFF" stop-opacity="0"/>
</linearGradient>
<linearGradient id="paint21_linear_687_61676" x1="346.955" y1="408.54" x2="531.272" y2="427.905" gradientUnits="userSpaceOnUse">
<stop stop-color="#9AFFFF" stop-opacity="0"/>
<stop offset="1" stop-color="#B0FFFD"/>
</linearGradient>
<linearGradient id="paint22_linear_687_61676" x1="489.65" y1="470.076" x2="485.086" y2="470.076" gradientUnits="userSpaceOnUse">
<stop stop-color="#9AFFFF"/>
<stop offset="1" stop-color="#B0FFFD"/>
</linearGradient>
<linearGradient id="paint23_linear_687_61676" x1="496.528" y1="423.228" x2="501.109" y2="423.228" gradientUnits="userSpaceOnUse">
<stop stop-color="#9AFFFF"/>
<stop offset="1" stop-color="#B0FFFD"/>
</linearGradient>
<linearGradient id="paint24_linear_687_61676" x1="68.4647" y1="407.35" x2="360.232" y2="438.013" gradientUnits="userSpaceOnUse">
<stop stop-color="#9AFFFF" stop-opacity="0"/>
<stop offset="1" stop-color="#B0FFFD"/>
</linearGradient>
<linearGradient id="paint25_linear_687_61676" x1="315.905" y1="505.912" x2="311.341" y2="505.912" gradientUnits="userSpaceOnUse">
<stop stop-color="#9AFFFF"/>
<stop offset="1" stop-color="#B0FFFD"/>
</linearGradient>
<linearGradient id="paint26_linear_687_61676" x1="322.786" y1="459.065" x2="327.35" y2="459.065" gradientUnits="userSpaceOnUse">
<stop stop-color="#9AFFFF"/>
<stop offset="1" stop-color="#B0FFFD"/>
</linearGradient>
<linearGradient id="paint27_linear_687_61676" x1="513.627" y1="489.054" x2="267.533" y2="463.18" gradientUnits="userSpaceOnUse">
<stop stop-color="#9AFFFF" stop-opacity="0"/>
<stop offset="1" stop-color="#B0FFFD"/>
</linearGradient>
<linearGradient id="paint28_linear_687_61676" x1="263.901" y1="478.48" x2="268.465" y2="478.48" gradientUnits="userSpaceOnUse">
<stop stop-color="#9AFFFF"/>
<stop offset="1" stop-color="#B0FFFD"/>
</linearGradient>
<linearGradient id="paint29_linear_687_61676" x1="-nan" y1="-nan" x2="-nan" y2="-nan" gradientUnits="userSpaceOnUse">
<stop stop-color="#9AFFFF" stop-opacity="0"/>
<stop offset="1" stop-color="#B0FFFD"/>
</linearGradient>
<linearGradient id="paint30_linear_687_61676" x1="-nan" y1="-nan" x2="-nan" y2="-nan" gradientUnits="userSpaceOnUse">
<stop stop-color="#9AFFFF" stop-opacity="0"/>
<stop offset="1" stop-color="#B0FFFD"/>
</linearGradient>
<linearGradient id="paint31_linear_687_61676" x1="-nan" y1="-nan" x2="-nan" y2="-nan" gradientUnits="userSpaceOnUse">
<stop stop-color="#9AFFFF" stop-opacity="0"/>
<stop offset="1" stop-color="#B0FFFD"/>
</linearGradient>
<linearGradient id="paint32_linear_687_61676" x1="-nan" y1="-nan" x2="-nan" y2="-nan" gradientUnits="userSpaceOnUse">
<stop stop-color="#9AFFFF" stop-opacity="0"/>
<stop offset="1" stop-color="#B0FFFD"/>
</linearGradient>
<linearGradient id="paint33_linear_687_61676" x1="-nan" y1="-nan" x2="-nan" y2="-nan" gradientUnits="userSpaceOnUse">
<stop stop-color="#9AFFFF" stop-opacity="0"/>
<stop offset="1" stop-color="#B0FFFD"/>
</linearGradient>
<linearGradient id="paint34_linear_687_61676" x1="-nan" y1="-nan" x2="-nan" y2="-nan" gradientUnits="userSpaceOnUse">
<stop stop-color="#9AFFFF" stop-opacity="0"/>
<stop offset="1" stop-color="#B0FFFD"/>
</linearGradient>
<linearGradient id="paint35_linear_687_61676" x1="-nan" y1="-nan" x2="-nan" y2="-nan" gradientUnits="userSpaceOnUse">
<stop stop-color="#9AFFFF" stop-opacity="0"/>
<stop offset="1" stop-color="#B0FFFD"/>
</linearGradient>
<linearGradient id="paint36_linear_687_61676" x1="-nan" y1="-nan" x2="-nan" y2="-nan" gradientUnits="userSpaceOnUse">
<stop stop-color="#9AFFFF" stop-opacity="0"/>
<stop offset="1" stop-color="#B0FFFD"/>
</linearGradient>
<linearGradient id="paint37_linear_687_61676" x1="-nan" y1="-nan" x2="-nan" y2="-nan" gradientUnits="userSpaceOnUse">
<stop stop-color="#9AFFFF" stop-opacity="0"/>
<stop offset="1" stop-color="#B0FFFD"/>
</linearGradient>
<linearGradient id="paint38_linear_687_61676" x1="-nan" y1="-nan" x2="-nan" y2="-nan" gradientUnits="userSpaceOnUse">
<stop stop-color="#9AFFFF" stop-opacity="0"/>
<stop offset="1" stop-color="#B0FFFD"/>
</linearGradient>
<linearGradient id="paint39_linear_687_61676" x1="-nan" y1="-nan" x2="-nan" y2="-nan" gradientUnits="userSpaceOnUse">
<stop stop-color="#9AFFFF" stop-opacity="0"/>
<stop offset="1" stop-color="#B0FFFD"/>
</linearGradient>
<linearGradient id="paint40_linear_687_61676" x1="220.076" y1="359.988" x2="285.805" y2="267.886" gradientUnits="userSpaceOnUse">
<stop stop-color="#5082C1"/>
<stop offset="0.17" stop-color="#5790C8"/>
<stop offset="0.49" stop-color="#6CB7DB"/>
<stop offset="0.94" stop-color="#8CF5FA"/>
<stop offset="1" stop-color="#92FFFF"/>
</linearGradient>
<linearGradient id="paint41_linear_687_61676" x1="161.9" y1="257.89" x2="341.09" y2="257.89" gradientUnits="userSpaceOnUse">
<stop stop-color="#0061D6"/>
<stop offset="0.14" stop-color="#0D6FD9"/>
<stop offset="0.41" stop-color="#3196E3"/>
<stop offset="0.77" stop-color="#6AD4F3"/>
<stop offset="1" stop-color="#92FFFF"/>
</linearGradient>
<linearGradient id="paint42_linear_687_61676" x1="160.533" y1="161.126" x2="345.637" y2="161.126" gradientUnits="userSpaceOnUse">
<stop stop-color="#66BBF2"/>
<stop offset="1" stop-color="#7AF4FD"/>
</linearGradient>
<linearGradient id="paint43_linear_687_61676" x1="353.513" y1="433.335" x2="419.243" y2="341.233" gradientUnits="userSpaceOnUse">
<stop stop-color="#5082C1"/>
<stop offset="0.17" stop-color="#5790C8"/>
<stop offset="0.49" stop-color="#6CB7DB"/>
<stop offset="0.94" stop-color="#8CF5FA"/>
<stop offset="1" stop-color="#92FFFF"/>
</linearGradient>
<linearGradient id="paint44_linear_687_61676" x1="295.337" y1="350.988" x2="474.528" y2="350.988" gradientUnits="userSpaceOnUse">
<stop stop-color="#004AD6"/>
<stop offset="0.12" stop-color="#0B58D9"/>
<stop offset="0.36" stop-color="#2B7FE2"/>
<stop offset="0.69" stop-color="#5DBDF0"/>
<stop offset="1" stop-color="#92FFFF"/>
</linearGradient>
<linearGradient id="paint45_linear_687_61676" x1="293.97" y1="273.976" x2="479.059" y2="273.976" gradientUnits="userSpaceOnUse">
<stop stop-color="#66BBF2"/>
<stop offset="1" stop-color="#7AF4FD"/>
</linearGradient>
<linearGradient id="paint46_linear_687_61676" x1="184.542" y1="466.458" x2="250.272" y2="374.355" gradientUnits="userSpaceOnUse">
<stop stop-color="#5082C1"/>
<stop offset="0.17" stop-color="#5790C8"/>
<stop offset="0.49" stop-color="#6CB7DB"/>
<stop offset="0.94" stop-color="#8CF5FA"/>
<stop offset="1" stop-color="#92FFFF"/>
</linearGradient>
<linearGradient id="paint47_linear_687_61676" x1="126.369" y1="406" x2="305.559" y2="406" gradientUnits="userSpaceOnUse">
<stop stop-color="#0061D6"/>
<stop offset="0.14" stop-color="#0D6FD9"/>
<stop offset="0.41" stop-color="#3196E3"/>
<stop offset="0.77" stop-color="#6AD4F3"/>
<stop offset="1" stop-color="#92FFFF"/>
</linearGradient>
<linearGradient id="paint48_linear_687_61676" x1="125" y1="353.881" x2="310.104" y2="353.881" gradientUnits="userSpaceOnUse">
<stop stop-color="#66BBF2"/>
<stop offset="1" stop-color="#7AF4FD"/>
</linearGradient>
<linearGradient id="paint49_linear_687_61676" x1="389.911" y1="211.604" x2="413.969" y2="211.604" gradientUnits="userSpaceOnUse">
<stop stop-color="#66BBF2"/>
<stop offset="1" stop-color="#7AF4FD"/>
</linearGradient>
<linearGradient id="paint50_linear_687_61676" x1="266.634" y1="68.5263" x2="388.724" y2="68.5263" gradientUnits="userSpaceOnUse">
<stop stop-color="#02FFFA"/>
<stop offset="1" stop-color="#D8FFFA" stop-opacity="0"/>
</linearGradient>
<linearGradient id="paint51_linear_687_61676" x1="270.217" y1="88.0203" x2="381.974" y2="88.0203" gradientUnits="userSpaceOnUse">
<stop stop-color="#02FFFA"/>
<stop offset="1" stop-color="#D8FFFA"/>
</linearGradient>
<linearGradient id="paint52_linear_687_61676" x1="269.077" y1="68.4295" x2="351.569" y2="68.4295" gradientUnits="userSpaceOnUse">
<stop stop-color="#02FFFA"/>
<stop offset="1" stop-color="#D8FFFA"/>
</linearGradient>
<linearGradient id="paint53_linear_687_61676" x1="432.659" y1="189.459" x2="432.659" y2="318.267" gradientUnits="userSpaceOnUse">
<stop stop-color="#D8FFFA" stop-opacity="0.5"/>
<stop offset="1" stop-color="#02FFFA"/>
</linearGradient>
<linearGradient id="paint54_linear_687_61676" x1="432.707" y1="194.28" x2="432.707" y2="314.056" gradientUnits="userSpaceOnUse">
<stop stop-color="#02FFFA"/>
<stop offset="1" stop-color="#D8FFFA"/>
</linearGradient>
<linearGradient id="paint55_linear_687_61676" x1="406.963" y1="235.791" x2="406.963" y2="302.18" gradientUnits="userSpaceOnUse">
<stop stop-color="#02FFFA"/>
<stop offset="1" stop-color="#D8FFFA"/>
</linearGradient>
<linearGradient id="paint56_linear_687_61676" x1="424.835" y1="243.78" x2="424.835" y2="291.478" gradientUnits="userSpaceOnUse">
<stop stop-color="#02FFFA"/>
<stop offset="1" stop-color="#D8FFFA"/>
</linearGradient>
<linearGradient id="paint57_linear_687_61676" x1="442.704" y1="224.928" x2="442.704" y2="280.405" gradientUnits="userSpaceOnUse">
<stop stop-color="#02FFFA"/>
<stop offset="1" stop-color="#D8FFFA"/>
</linearGradient>
<linearGradient id="paint58_linear_687_61676" x1="460.574" y1="236.435" x2="460.574" y2="269.782" gradientUnits="userSpaceOnUse">
<stop stop-color="#02FFFA"/>
<stop offset="1" stop-color="#D8FFFA"/>
</linearGradient>
<linearGradient id="paint59_linear_687_61676" x1="519.526" y1="228.126" x2="519.526" y2="255.19" gradientUnits="userSpaceOnUse">
<stop stop-color="#D8FFFA" stop-opacity="0.5"/>
<stop offset="1" stop-color="#02FFFA"/>
</linearGradient>
<linearGradient id="paint60_linear_687_61676" x1="261.151" y1="289.437" x2="261.151" y2="316.501" gradientUnits="userSpaceOnUse">
<stop stop-color="#D8FFFA" stop-opacity="0.5"/>
<stop offset="1" stop-color="#02FFFA"/>
</linearGradient>
<linearGradient id="paint61_linear_687_61676" x1="208.167" y1="64.1235" x2="208.167" y2="100.476" gradientUnits="userSpaceOnUse">
<stop stop-color="#D8FFFA" stop-opacity="0.5"/>
<stop offset="1" stop-color="#02FFFA"/>
</linearGradient>
<linearGradient id="paint62_linear_687_61676" x1="122.219" y1="147.403" x2="122.219" y2="165.498" gradientUnits="userSpaceOnUse">
<stop stop-color="#D8FFFA" stop-opacity="0.5"/>
<stop offset="1" stop-color="#02FFFA"/>
</linearGradient>
<linearGradient id="paint63_linear_687_61676" x1="82.7345" y1="391.696" x2="82.7345" y2="409.808" gradientUnits="userSpaceOnUse">
<stop stop-color="#D8FFFA" stop-opacity="0.5"/>
<stop offset="1" stop-color="#02FFFA"/>
</linearGradient>
<linearGradient id="paint64_linear_687_61676" x1="381.843" y1="79.551" x2="381.843" y2="97.6629" gradientUnits="userSpaceOnUse">
<stop stop-color="#D8FFFA" stop-opacity="0.5"/>
<stop offset="1" stop-color="#02FFFA"/>
</linearGradient>
<linearGradient id="paint65_linear_687_61676" x1="88.7752" y1="196.129" x2="88.7752" y2="223.193" gradientUnits="userSpaceOnUse">
<stop stop-color="#D8FFFA" stop-opacity="0.5"/>
<stop offset="1" stop-color="#02FFFA"/>
</linearGradient>
<linearGradient id="paint66_linear_687_61676" x1="172.218" y1="243.86" x2="172.218" y2="370.177" gradientUnits="userSpaceOnUse">
<stop stop-color="#D8FFFA" stop-opacity="0.5"/>
<stop offset="1" stop-color="#02FFFA"/>
</linearGradient>
<linearGradient id="paint67_linear_687_61676" x1="172.233" y1="306.745" x2="172.233" y2="343.708" gradientUnits="userSpaceOnUse">
<stop stop-color="#02FFFA"/>
<stop offset="1" stop-color="#D8FFFA"/>
</linearGradient>
<linearGradient id="paint68_linear_687_61676" x1="172.233" y1="314.828" x2="172.233" y2="351.792" gradientUnits="userSpaceOnUse">
<stop stop-color="#02FFFA"/>
<stop offset="1" stop-color="#D8FFFA"/>
</linearGradient>
<linearGradient id="paint69_linear_687_61676" x1="188.271" y1="316.79" x2="141.135" y2="255.72" gradientUnits="userSpaceOnUse">
<stop stop-color="#02FFFA"/>
<stop offset="1" stop-color="#D8FFFA"/>
</linearGradient>
<linearGradient id="paint70_linear_687_61676" x1="285.372" y1="84.8081" x2="262.664" y2="72.4657" gradientUnits="userSpaceOnUse">
<stop stop-color="#3660CD"/>
<stop offset="0.75" stop-color="#62ADEF"/>
<stop offset="1" stop-color="#72C9FC"/>
</linearGradient>
</defs>
</svg>
