<svg width="65" height="42" viewBox="0 0 65 42" fill="none" xmlns="http://www.w3.org/2000/svg">
<path d="M62.7464 0C63.028 0.285764 62.969 0.520652 62.973 0.911793C62.9722 1.05607 62.9722 1.05607 62.9714 1.20325C62.9705 1.35115 62.9705 1.35115 62.9697 1.50204C62.9282 4.09364 61.942 6.50512 60.2166 8.39193C60.1084 8.512 60.1084 8.512 59.9981 8.63451C59.2716 9.40681 58.4662 10.0656 57.536 10.5636C56.4782 11.0615 56.4782 11.0615 55.7208 11.9033C55.6293 12.2125 55.5602 12.5172 55.4995 12.8337C55.2028 14.001 54.3581 15.0921 53.6004 15.994C53.517 16.0937 53.517 16.0937 53.432 16.1953C52.3745 17.3559 50.8272 18.0766 49.4382 18.7376C49.3347 18.7872 49.2313 18.8369 49.1247 18.888C49.0364 18.9283 48.9481 18.9687 48.8571 19.0103C48.4333 19.2873 48.3014 19.741 48.1273 20.2023C47.2501 22.3567 45.5075 23.8789 43.4245 24.7866C42.036 25.3362 40.5416 25.702 39.0676 25.9139C38.9135 25.9365 38.9135 25.9365 38.7563 25.9594C38.6679 25.9705 38.5795 25.9816 38.4884 25.993C37.9817 26.1314 37.5837 26.5019 37.1673 26.815C36.102 27.6095 35.0449 28.122 33.7516 28.4338C33.6804 28.4513 33.6093 28.4688 33.536 28.4869C31.2903 28.9971 28.8568 28.5305 26.6093 28.2323C23.5254 27.8276 20.6264 27.5168 17.9734 29.4477C17.7113 29.6615 17.4607 29.8839 17.2109 30.1122C17.1294 30.1798 17.0479 30.2474 16.9639 30.317C16.5878 30.6366 16.2656 30.9381 16.0088 31.364C15.7814 31.7405 15.5748 32.069 15.265 32.383C14.7902 32.4981 14.3805 32.471 13.9028 32.383C13.9599 31.9011 14.1674 31.5378 14.4015 31.1242C14.441 31.0539 14.4806 30.9835 14.5214 30.9111C15.2279 29.6766 16.1495 28.7373 17.2584 27.8712C17.7418 27.493 18.2059 27.0958 18.6667 26.6897C19.0002 26.3962 19.3392 26.1134 19.6859 25.836C20.2159 25.4009 20.6888 24.9159 21.1662 24.4234C21.4723 24.1079 21.7779 23.801 22.1123 23.5159C24.3817 21.5492 26.0552 18.5221 26.3569 15.5004C26.4573 13.8759 26.481 12.2214 25.9677 10.6627C25.9469 10.5982 25.926 10.5337 25.9046 10.4673C25.2347 8.46325 23.91 6.43104 22.0652 5.37145C18.657 3.68904 14.8842 3.89007 11.359 5.06871C8.39229 6.10892 5.49205 8.39449 4.08787 11.2921C3.81599 12.0223 3.6117 12.7769 3.39462 13.5258C4.87161 13.5584 6.34859 13.591 7.87033 13.6245C7.96665 13.2662 8.06298 12.9078 8.16222 12.5385C8.85849 10.7673 10.035 9.45222 11.7436 8.62409C13.6398 7.80926 15.8577 7.68525 17.786 8.46732C19.1744 9.06939 20.0857 9.94463 20.6954 11.3538C21.386 13.1586 21.1004 14.9142 20.405 16.6782C19.9893 17.5939 19.3849 18.3704 18.7677 19.1533C18.7228 19.2106 18.678 19.2678 18.6317 19.3268C17.5156 20.7357 16.2248 22.0237 14.8758 23.2012C14.7194 23.3448 14.5632 23.4887 14.4075 23.6331C13.9897 24.0158 13.559 24.3782 13.1218 24.7377C12.6239 25.1519 12.1377 25.5798 11.65 26.0063C11.4641 26.1685 11.2776 26.3302 11.091 26.4916C11.0293 26.5451 10.9676 26.5986 10.904 26.6537C10.7857 26.7561 10.6674 26.8585 10.5489 26.9607C10.3373 27.1443 10.1291 27.3257 9.93601 27.5294C9.81629 27.644 9.81629 27.644 9.62169 27.644C9.59435 27.7001 9.56701 27.7562 9.53884 27.8141C9.46637 27.9599 9.39198 28.1047 9.31535 28.2483C8.7238 29.3819 8.48759 30.5283 8.35682 31.7906C7.91492 31.633 7.67798 31.4969 7.46479 31.0686C7.00353 29.8349 7.16509 28.8379 7.67573 27.644C8.23529 26.4314 9.00338 25.6477 10.0249 24.8156C10.3045 24.5819 10.5716 24.3388 10.8379 24.0898C11.1799 23.7703 11.5272 23.4652 11.8899 23.1704C12.3831 22.7667 12.8466 22.3369 13.3072 21.896C13.5958 21.62 13.8877 21.3501 14.1879 21.087C15.2222 20.1738 16.1808 19.1702 17.0163 18.0673C17.0978 17.9639 17.1794 17.8605 17.2611 17.7573C18.3885 16.3213 19.2492 14.8402 19.0596 12.9334C18.93 12.0492 18.5833 11.385 17.9068 10.8046C17.0556 10.2086 16.0461 10.1158 15.04 10.1258C14.8799 10.1271 14.8799 10.1271 14.7167 10.1283C13.4149 10.1558 12.4333 10.4657 11.3731 11.2551C11.3152 11.2945 11.2574 11.334 11.1978 11.3746C10.4638 11.9173 10.1884 12.7879 9.91358 13.6245C9.81726 14.3413 9.72093 15.0581 9.62169 15.7966C6.69983 15.7966 3.77798 15.7966 0.767578 15.7966C2.16243 10.1351 2.16243 10.1351 3.68652 8.2932C3.74986 8.21646 3.81319 8.13971 3.87845 8.06065C4.10035 7.80266 4.32946 7.55388 4.5622 7.30591C4.61375 7.25039 4.6653 7.19487 4.71841 7.13767C7.02816 4.6636 9.74614 3.19001 13.0271 2.46821C13.1342 2.44397 13.1342 2.44397 13.2434 2.41923C15.3757 1.95749 17.9127 1.93372 20.0326 2.46821C20.0989 2.48358 20.1652 2.49895 20.2335 2.51478C21.9873 2.92659 23.497 3.78494 24.8002 5.03516C24.8631 5.09128 24.9261 5.14741 24.991 5.20523C25.6077 5.7796 26.0685 6.51849 26.5515 7.20718C26.6209 7.13642 26.6903 7.06566 26.7617 6.99276C28.2594 5.4757 29.9085 4.2719 32.0002 3.75168C32.1194 3.72203 32.2385 3.69238 32.3613 3.66183C33.4426 3.42955 34.5307 3.42941 35.6306 3.43082C35.7399 3.43092 35.7399 3.43092 35.8513 3.43102C36.8782 3.43415 37.9035 3.46724 38.9297 3.50486C40.4853 3.56073 42.0404 3.5783 43.5969 3.57891C43.666 3.57897 43.735 3.57903 43.8061 3.57909C47.1562 3.58106 50.4889 3.45328 53.795 2.86313C53.9173 2.84135 54.0396 2.81957 54.1656 2.79713C57.1456 2.25993 60.1391 1.63078 62.7464 0ZM60.4637 2.81415C57.8344 3.74541 55.177 4.30615 52.4328 4.73897C52.3266 4.75577 52.2204 4.77257 52.111 4.78988C51.506 4.88379 50.9002 4.96294 50.2922 5.03516C50.215 5.04443 50.1379 5.0537 50.0583 5.06325C48.0936 5.2882 46.1234 5.25923 44.1496 5.25193C43.7847 5.25085 43.4199 5.25089 43.055 5.25095C42.698 5.25093 42.341 5.25038 41.9839 5.24967C41.8161 5.24936 41.6483 5.24916 41.4805 5.24909C40.5146 5.24819 39.5558 5.22043 38.5919 5.15682C38.1423 5.12854 37.694 5.11489 37.2437 5.11036C37.1608 5.10939 37.0779 5.10843 36.9925 5.10743C34.5168 5.06054 34.5168 5.06054 32.0975 5.5288C32.0288 5.54996 31.9602 5.57111 31.8894 5.59291C30.5491 6.02191 29.2781 6.67751 28.2056 7.6021C28.0091 7.76474 27.8125 7.92723 27.6157 8.08957C27.4555 8.22316 27.2953 8.35681 27.1353 8.49065C27.1737 8.62234 27.2122 8.75396 27.2509 8.88557C27.2772 8.97542 27.3035 9.06527 27.3307 9.15784C27.4009 9.39075 27.4732 9.62221 27.5481 9.85357C27.5692 9.91988 27.5904 9.98618 27.6122 10.0545C27.6536 10.1838 27.6956 10.3129 27.7384 10.4417C28.0818 11.5226 28.1422 12.6007 28.139 13.7267C28.1387 13.9503 28.141 14.1737 28.1435 14.3972C28.1477 15.362 28.0448 16.2383 27.8164 17.1788C27.7946 17.2695 27.7727 17.3603 27.7502 17.4538C26.8902 20.8286 24.7622 23.2887 22.3541 25.6796C22.2273 25.8062 22.1026 25.935 21.9785 26.0643C21.9785 26.0969 21.9785 26.1295 21.9785 26.1631C22.0952 26.1645 22.2118 26.1659 22.332 26.1673C24.3376 26.2138 26.325 26.4686 28.3162 26.7005C28.3954 26.7096 28.4745 26.7188 28.5561 26.7282C28.711 26.7463 28.8659 26.7648 29.0208 26.7837C31.3313 27.0594 33.9615 27.0776 35.8921 25.5707C35.9563 25.4729 36.0206 25.3752 36.0867 25.2745C35.9807 25.2512 35.8746 25.2279 35.7653 25.2039C33.8817 24.7897 31.9993 24.3742 30.1283 23.9042C30.0232 23.8779 29.9181 23.8516 29.8099 23.8244C29.7201 23.8017 29.6303 23.7789 29.5379 23.7554C29.2573 23.6906 28.9763 23.6415 28.6921 23.5961C30.488 23.5513 32.2454 23.5872 34.0313 23.7936C36.731 24.0983 39.4068 24.2873 42.0219 23.3987C42.0973 23.3734 42.1727 23.3481 42.2504 23.322C43.9603 22.7303 45.5786 21.5121 46.4003 19.8444C46.4003 19.7793 46.4003 19.7141 46.4003 19.647C46.2993 19.6604 46.2993 19.6604 46.1962 19.6742C42.6912 20.131 39.2688 19.8576 35.7718 19.4646C34.4766 19.3198 33.1989 19.2357 31.8957 19.2392C31.66 19.2397 31.4244 19.2392 31.1888 19.2386C30.3189 19.2382 29.4612 19.2649 28.5948 19.3508C30.1755 18.8175 31.6981 18.549 33.3686 18.5438C33.46 18.5432 33.5515 18.5425 33.6457 18.5418C33.8425 18.5405 34.0393 18.5393 34.2361 18.5383C34.5499 18.5366 34.8636 18.5343 35.1774 18.5319C36.069 18.5249 36.9606 18.519 37.8522 18.5139C38.3997 18.5107 38.9473 18.5066 39.4949 18.502C39.701 18.5005 39.9072 18.4992 40.1134 18.4984C44.1623 18.4813 48.3622 18.0297 51.6544 15.4017C51.7622 15.3207 51.7622 15.3207 51.8722 15.2381C52.7781 14.5099 53.3134 13.5566 53.6004 12.4398C53.4885 12.4577 53.3767 12.4757 53.2614 12.4942C50.7942 12.885 48.41 13.1378 45.9138 13.0322C45.7971 13.0281 45.6803 13.024 45.56 13.0197C43.5295 12.9426 41.5122 12.6903 39.4953 12.4517C37.7666 12.2479 36.0646 12.1265 34.3237 12.1307C34.0603 12.1313 33.797 12.1307 33.5336 12.1301C32.6936 12.1298 31.8621 12.1353 31.0272 12.2423C31.414 12.1461 31.8013 12.0521 32.1887 11.9585C32.2955 11.9319 32.4023 11.9053 32.5124 11.8779C34.28 11.454 36.0162 11.4242 37.8224 11.4254C38.2622 11.4257 38.7021 11.4243 39.142 11.4226C40.3916 11.418 41.6413 11.4156 42.8909 11.4149C43.5839 11.4145 44.2769 11.4127 44.9699 11.4095C45.334 11.4078 45.6981 11.4069 46.0623 11.4078C50.8063 11.4186 55.1579 10.7239 58.7572 7.40464C58.8248 7.34304 58.8924 7.28145 58.962 7.21798C60.1471 6.08187 60.7999 4.47101 61.0923 2.86313C61.0923 2.79797 61.0923 2.73281 61.0923 2.66567C60.8542 2.66567 60.6885 2.73299 60.4637 2.81415Z" fill="white"/>
<path d="M12.6391 20.0029C12.3903 20.336 12.1448 20.6007 11.8181 20.8545C11.3644 21.214 10.9239 21.5861 10.4864 21.9656C10.1678 22.2412 9.84357 22.506 9.51338 22.7673C8.97393 23.2143 8.47737 23.7037 7.98093 24.1989C7.90102 24.2774 7.82111 24.3559 7.73878 24.4368C7.25641 24.9248 6.89822 25.3995 6.6066 26.0254C6.54238 26.0254 6.47817 26.0254 6.412 26.0254C6.32068 25.0679 6.68126 24.5382 7.2626 23.8121C7.61291 23.3837 7.96709 22.961 8.35796 22.5699C7.27629 23.1488 6.27864 23.7432 5.34173 24.5444C5.24778 24.6236 5.15384 24.7028 5.05705 24.7843C3.77112 25.9141 2.83316 27.3691 2.289 28.9996C2.26578 29.069 2.24255 29.1384 2.21862 29.21C1.55472 31.3321 1.54431 33.8718 2.53833 35.8797C3.53542 37.6191 5.01208 38.8033 6.92028 39.3465C7.20365 39.4213 7.48796 39.4886 7.77418 39.5512C7.84802 39.5686 7.92186 39.5859 7.99794 39.6038C8.29753 39.6564 8.58023 39.6638 8.88432 39.6655C9.01025 39.6665 9.13617 39.6675 9.26592 39.6685C9.40476 39.669 9.5436 39.6696 9.68244 39.6702C9.82917 39.6711 9.97591 39.6721 10.1226 39.6731C10.5204 39.6758 10.9182 39.6779 11.316 39.6799C11.732 39.682 12.1479 39.6847 12.5638 39.6874C13.3512 39.6923 14.1386 39.6967 14.9259 39.701C15.8224 39.7059 16.7189 39.7113 17.6154 39.7168C19.4594 39.728 21.3033 39.7385 23.1472 39.7486C23.1567 39.6484 23.1567 39.6484 23.1664 39.5461C23.1748 39.4579 23.1833 39.3697 23.1921 39.2789C23.2004 39.1917 23.2087 39.1045 23.2173 39.0146C23.2534 38.6793 23.3115 38.3508 23.3749 38.0197C23.3873 37.9548 23.3996 37.8899 23.4124 37.8231C23.4382 37.6877 23.4643 37.5525 23.4906 37.4172C23.5305 37.212 23.5695 37.0066 23.6085 36.8012C23.7247 36.1956 23.8534 35.6027 24.0229 35.0097C23.9125 35.0099 23.9125 35.0099 23.7998 35.0102C22.0041 35.0146 20.2084 35.0179 18.4128 35.0199C17.5444 35.0209 16.676 35.0223 15.8076 35.0246C15.0503 35.0265 14.293 35.0278 13.5357 35.0282C13.1351 35.0285 12.7345 35.0291 12.3338 35.0305C11.9559 35.0319 11.578 35.0323 11.2001 35.032C11.0622 35.0321 10.9244 35.0324 10.7865 35.0332C9.08224 35.0422 7.55134 34.7848 6.21741 33.6275C5.92179 33.2937 5.73889 32.9748 5.57281 32.56C5.53343 32.4636 5.49404 32.3673 5.45347 32.268C5.22297 31.6101 5.11361 31.0124 5.11672 30.3139C5.11516 30.2432 5.11359 30.1725 5.11197 30.0997C5.11152 29.5929 5.21643 29.2433 5.43902 28.7898C5.47113 28.7898 5.50324 28.7898 5.53632 28.7898C5.55764 28.9114 5.57897 29.0331 5.60093 29.1585C5.8497 30.5047 6.18803 31.9369 7.36902 32.7655C8.41772 33.3454 9.53445 33.3752 10.6968 33.374C10.8618 33.3749 11.0269 33.3759 11.1919 33.377C11.6369 33.3797 12.0819 33.3807 12.5269 33.3813C12.9931 33.3822 13.4593 33.3848 13.9254 33.3872C14.8069 33.3915 15.6883 33.3943 16.5697 33.3966C17.5738 33.3993 18.5778 33.4036 19.5819 33.4081C21.646 33.4172 23.7101 33.4243 25.7743 33.43C25.7757 33.6176 25.7767 33.8052 25.7775 33.9927C25.7781 34.0972 25.7787 34.2016 25.7793 34.3093C25.7722 34.7449 25.7149 35.1613 25.6405 35.5897C25.6252 35.6791 25.61 35.7686 25.5942 35.8607C25.3866 37.0276 25.1328 38.1841 24.8827 39.3422C24.8369 39.5546 24.7912 39.767 24.7455 39.9795C24.6346 40.495 24.5235 41.0104 24.4121 41.5258C22.3745 41.5327 20.337 41.5379 18.2994 41.5411C17.3531 41.5426 16.4069 41.5447 15.4606 41.5481C14.6351 41.5511 13.8096 41.553 12.9841 41.5536C12.5477 41.554 12.1113 41.5549 11.6749 41.5571C11.2626 41.5591 10.8504 41.5597 10.4381 41.5593C10.2882 41.5593 10.1384 41.5599 9.98847 41.5611C7.35526 41.5803 4.70207 40.9132 2.7586 39.0156C2.61203 38.867 2.46818 38.7163 2.32549 38.5639C2.24447 38.4776 2.16344 38.3913 2.07997 38.3024C1.13941 37.2177 0.60113 35.9126 0.282234 34.516C0.26041 34.432 0.238586 34.348 0.216102 34.2615C-0.393694 31.5661 0.342333 28.5617 1.72992 26.2425C4.05664 22.6815 7.74645 20.9193 11.7687 20.0469C12.0632 20.0017 12.3417 19.9948 12.6391 20.0029Z" fill="white"/>
<path d="M32.2114 34.0019C33.4941 37.2728 33.4941 37.2728 33.9179 38.5588C34.0649 38.2801 34.1645 38.0031 34.2565 37.7012C34.286 37.6042 34.3156 37.5072 34.3461 37.4073C34.3771 37.3042 34.408 37.2011 34.44 37.0949C34.4876 36.9372 34.4876 36.9372 34.5363 36.7762C34.8024 35.8871 35.0397 34.9937 35.2652 34.0931C35.9172 34.0931 36.5693 34.0931 37.2411 34.0931C37.079 34.6416 36.9165 35.1894 36.7475 35.7357C36.7268 35.8025 36.7062 35.8692 36.6849 35.938C36.6178 36.1547 36.5506 36.3714 36.4833 36.588C36.4602 36.6624 36.4371 36.7369 36.4133 36.8135C35.8999 38.465 35.3614 40.1078 34.8161 41.7487C34.6439 41.7511 34.4718 41.7529 34.2996 41.7544C34.2038 41.7554 34.1079 41.7565 34.0091 41.7576C33.5701 41.7431 33.5701 41.7431 33.379 41.6575C33.2657 41.4822 33.2657 41.4822 33.1695 41.251C33.1333 41.1655 33.0971 41.08 33.0598 40.9919C33.0225 40.8995 32.9852 40.8072 32.9467 40.712C32.9078 40.6181 32.8689 40.5243 32.8287 40.4276C32.5784 39.8185 32.3387 39.2052 32.1103 38.5873C32.0838 38.516 32.0573 38.4447 32.03 38.3713C31.9143 38.0484 31.8521 37.8127 31.8521 37.4652C31.7928 37.4652 31.7335 37.4652 31.6725 37.4652C31.6657 37.5154 31.6589 37.5656 31.6519 37.6173C31.53 38.3619 31.2492 39.031 30.9595 39.7209C30.9106 39.8394 30.8618 39.9579 30.8131 40.0765C30.2342 41.4764 30.2342 41.4764 30.0557 41.6575C29.8289 41.6791 29.6039 41.696 29.3765 41.7088C29.3126 41.7127 29.2488 41.7167 29.183 41.7207C29.0249 41.7304 28.8667 41.7396 28.7085 41.7487C28.0866 39.9011 27.4946 38.0458 26.9346 36.1779C26.9064 36.0842 26.8783 35.9905 26.8492 35.894C26.7693 35.6277 26.6898 35.3613 26.6104 35.0949C26.5863 35.0145 26.5622 34.9342 26.5374 34.8514C26.5157 34.7779 26.4939 34.7045 26.4716 34.6288C26.4525 34.5647 26.4334 34.5005 26.4137 34.4344C26.3732 34.2754 26.3732 34.2754 26.3732 34.0931C27.0253 34.0931 27.6774 34.0931 28.3492 34.0931C28.3851 34.2396 28.421 34.3861 28.458 34.537C28.629 35.2311 28.8039 35.9241 28.9794 36.6171C29.0347 36.8354 29.0898 37.0537 29.1449 37.2721C29.1802 37.4116 29.2156 37.551 29.2509 37.6905C29.2673 37.7555 29.2836 37.8204 29.3005 37.8873C29.3658 38.1447 29.434 38.3977 29.5168 38.65C29.5558 38.5411 29.5947 38.4322 29.6348 38.32C29.7805 37.9127 29.9265 37.5056 30.0727 37.0986C30.1357 36.923 30.1986 36.7473 30.2614 36.5717C30.3521 36.318 30.4432 36.0644 30.5343 35.8108C30.5619 35.7333 30.5895 35.6558 30.618 35.576C30.6979 35.3542 30.7804 35.1337 30.8641 34.9133C30.8924 34.8358 30.9208 34.7583 30.95 34.6785C30.9937 34.5669 30.9937 34.5669 31.0384 34.4532C31.0639 34.3863 31.0895 34.3193 31.1158 34.2504C31.2234 34.0931 31.2234 34.0931 31.4294 34.0224C31.693 33.9895 31.9469 34.0019 32.2114 34.0019Z" fill="white"/>
<path d="M41.8219 34.0007C43.3488 34.0007 43.3488 34.0007 43.8764 34.5134C44.0117 34.6886 44.0117 34.6886 44.1094 34.8427C44.33 35.1785 44.571 35.4916 44.8195 35.8064C44.901 35.9124 44.9824 36.0185 45.0637 36.1246C45.3982 36.5588 45.7427 36.9846 46.088 37.4099C46.3886 37.7823 46.6696 38.1631 46.9415 38.5576C46.953 37.0652 46.926 35.5825 46.8516 34.0918C47.5037 34.0918 48.1558 34.0918 48.8276 34.0918C48.9474 36.5819 48.9265 39.0728 48.9174 41.5652C48.3812 41.7465 47.7634 41.8015 47.2109 41.6563C46.8696 41.4067 46.6584 41.0976 46.4322 40.7448C46.3012 40.545 46.1619 40.3538 46.0198 40.1621C45.5791 39.5677 45.1501 38.9649 44.7216 38.3614C44.6683 38.2863 44.615 38.2112 44.56 38.1338C44.458 37.99 44.3563 37.846 44.2547 37.7019C44.2091 37.6374 44.1634 37.5728 44.1164 37.5063C44.0565 37.4212 44.0565 37.4212 43.9953 37.3343C43.883 37.1776 43.883 37.1776 43.708 37.0083C43.7082 37.0651 43.7084 37.122 43.7086 37.1806C43.7106 37.7705 43.712 38.3603 43.713 38.9502C43.7134 39.1706 43.714 39.391 43.7148 39.6114C43.7159 39.9274 43.7164 40.2434 43.7168 40.5594C43.7173 40.6586 43.7177 40.7578 43.7182 40.8601C43.7182 40.9969 43.7182 40.9969 43.7182 41.1365C43.7184 41.2173 43.7186 41.298 43.7188 41.3812C43.708 41.5652 43.708 41.5652 43.6182 41.6563C43.0254 41.6563 42.4326 41.6563 41.8219 41.6563C41.8219 39.1299 41.8219 36.6036 41.8219 34.0007Z" fill="white"/>
<path d="M54.5495 34.0004C54.6681 34.0009 54.6681 34.0009 54.7891 34.0014C55.4002 34.0117 55.9802 34.0732 56.5535 34.3023C56.6364 34.3315 56.7193 34.3606 56.8047 34.3906C57.0026 34.5758 57.0026 34.5758 57.0379 34.7686C57.047 35.0153 57.0416 35.2576 57.0307 35.5042C57.0286 35.5899 57.0266 35.6756 57.0245 35.7639C57.0192 35.9756 57.0119 36.187 57.0026 36.3985C56.8824 36.3508 56.8824 36.3508 56.7598 36.302C56.6547 36.2606 56.5496 36.2191 56.4412 36.1764C56.337 36.1351 56.2328 36.0939 56.1255 36.0514C55.3028 35.7439 54.1194 35.6503 53.2976 35.9998C53.1206 36.099 53.1206 36.099 52.9608 36.2162C52.9033 36.2538 52.8457 36.2914 52.7865 36.3302C52.3198 36.6781 52.1073 37.1092 51.9728 37.6744C51.8823 38.4345 52.0054 38.9743 52.4444 39.6054C52.9312 40.1106 53.505 40.3849 54.2091 40.4225C54.6811 40.4278 55.0962 40.3968 55.5655 40.3174C55.5655 39.9265 55.5655 39.5355 55.5655 39.1327C55.1506 39.1327 54.7356 39.1327 54.3081 39.1327C54.3081 38.6514 54.3081 38.1702 54.3081 37.6744C55.2566 37.6744 56.205 37.6744 57.1822 37.6744C57.1822 38.8173 57.1822 39.9602 57.1822 41.1377C55.8207 41.9052 54.4562 42.2094 52.9159 41.8497C51.8039 41.5146 50.9447 40.9537 50.3789 39.9087C49.9143 38.9629 49.8066 37.8836 50.1372 36.8656C50.6162 35.7381 51.4158 34.8849 52.5342 34.3992C52.7048 34.3324 52.8771 34.2698 53.0506 34.2112C53.1471 34.1778 53.2435 34.1445 53.3429 34.1101C53.752 34.0114 54.1305 33.9977 54.5495 34.0004Z" fill="white"/>
<path d="M63.7375 34.3837C63.9566 34.606 63.9429 34.6766 63.9543 34.9825C63.9595 35.105 63.9595 35.105 63.9648 35.2299C63.9676 35.3153 63.9704 35.4007 63.9733 35.4887C63.9785 35.6179 63.9785 35.6179 63.9838 35.7497C63.9923 35.9627 63.9999 36.1757 64.0069 36.3887C63.7496 36.2854 63.4963 36.1785 63.2435 36.064C62.7538 35.86 62.3296 35.8275 61.8008 35.8248C61.6256 35.8229 61.6256 35.8229 61.4468 35.8209C61.16 35.8401 61.0061 35.8597 60.7735 36.0242C60.6444 36.2862 60.6494 36.4634 60.6837 36.7533C61.0658 37.1741 61.5294 37.2369 62.059 37.3457C62.9383 37.5285 63.6564 37.7096 64.1866 38.4849C64.4788 39.0966 64.4723 39.8789 64.2708 40.5241C64.0105 41.1036 63.5852 41.4659 63.0133 41.7089C61.5424 42.2653 60.1279 41.8817 58.7077 41.4013C58.7077 40.8599 58.7077 40.3186 58.7077 39.7608C59.4431 40.0285 59.4431 40.0285 59.6723 40.1125C60.4215 40.383 61.2657 40.5924 62.0366 40.2792C62.3191 40.1409 62.3191 40.1409 62.48 39.852C62.5016 39.6645 62.5016 39.6645 62.4913 39.4703C62.4876 39.3557 62.4839 39.241 62.48 39.1229C62.1508 38.9792 61.8307 38.8868 61.4808 38.8096C59.5072 38.356 59.5072 38.356 58.8873 37.4824C58.6167 36.933 58.608 36.2205 58.7631 35.6315C59.0275 35.0226 59.5216 34.6186 60.0886 34.3096C61.3157 33.9017 62.5316 33.8695 63.7375 34.3837Z" fill="white"/>
<path d="M38.3194 34.0007C38.8825 34.0007 39.4457 34.0007 40.0259 34.0007C40.0259 36.527 40.0259 39.0534 40.0259 41.6563C39.4627 41.6563 38.8996 41.6563 38.3194 41.6563C38.3194 39.1299 38.3194 36.6036 38.3194 34.0007Z" fill="white"/>
</svg>
