<svg width="1440" height="326" viewBox="0 0 1440 326" fill="none" xmlns="http://www.w3.org/2000/svg">
<g clip-path="url(#clip0_1359_63815)">
<g opacity="0.39" filter="url(#filter0_f_1359_63815)">
<path d="M1659.19 337.688C1468.89 305.949 1182.32 185.331 1558.4 -43.238" stroke="#29ADC5" stroke-width="0.388211"/>
<path d="M166.973 326.766C356.967 341.871 643.574 394.075 270.046 482.042" stroke="#29ADC5" stroke-width="0.388211"/>
<path d="M1640.72 337.541C1455.62 300.951 1182.23 172.039 1569.44 -50.8878" stroke="#29ADC5" stroke-width="0.388211"/>
<path d="M1622.25 337.396C1442.63 296.009 1182.83 158.997 1580.6 -57.9514" stroke="#29ADC5" stroke-width="0.388211"/>
<path d="M1603.78 337.25C1429.91 291.128 1184.08 146.222 1591.81 -64.4222" stroke="#29ADC5" stroke-width="0.388211"/>
<path d="M1585.32 337.104C1417.45 286.316 1185.98 133.734 1603.05 -70.2891" stroke="#29ADC5" stroke-width="0.388211"/>
<path d="M1566.85 336.959C1405.24 281.582 1188.47 121.554 1614.26 -75.5411" stroke="#29ADC5" stroke-width="0.388211"/>
<path d="M1548.38 336.812C1393.27 276.93 1191.52 109.696 1625.39 -80.1747" stroke="#29ADC5" stroke-width="0.388211"/>
<path d="M1529.91 336.666C1381.54 272.368 1195.13 98.1802 1636.42 -84.1811" stroke="#29ADC5" stroke-width="0.388211"/>
<path d="M1511.45 336.52C1370.04 267.902 1199.23 87.0227 1647.28 -87.5544" stroke="#29ADC5" stroke-width="0.388211"/>
<path d="M1492.98 336.375C1358.74 263.542 1203.8 76.2423 1657.94 -90.2881" stroke="#29ADC5" stroke-width="0.388211"/>
<path d="M1474.51 336.229C1347.65 259.289 1208.8 65.8513 1668.35 -92.3818" stroke="#29ADC5" stroke-width="0.388211"/>
<path d="M1456.05 336.084C1336.75 255.154 1214.21 55.8689 1678.47 -93.8289" stroke="#29ADC5" stroke-width="0.388211"/>
<path d="M1437.58 335.939C1326.02 251.14 1219.98 46.308 1688.25 -94.6295" stroke="#29ADC5" stroke-width="0.388211"/>
<path d="M1419.11 335.793C1315.47 247.253 1226.07 37.1806 1697.66 -94.7845" stroke="#29ADC5" stroke-width="0.388211"/>
<path d="M1400.64 335.648C1305.07 243.5 1232.46 28.5045 1706.65 -94.2897" stroke="#29ADC5" stroke-width="0.388211"/>
<path d="M1382.18 335.502C1294.81 239.884 1239.1 20.2883 1715.18 -93.1503" stroke="#29ADC5" stroke-width="0.388211"/>
<path d="M1363.71 335.357C1284.69 236.414 1245.95 12.5483 1723.2 -91.3642" stroke="#29ADC5" stroke-width="0.388211"/>
<path d="M1345.24 335.211C1274.68 233.09 1252.98 5.29176 1730.68 -88.9382" stroke="#29ADC5" stroke-width="0.388211"/>
<path d="M1326.77 335.066C1264.78 229.923 1260.16 -1.46666 1737.59 -85.8724" stroke="#29ADC5" stroke-width="0.388211"/>
<path d="M1308.31 334.918C1254.98 226.909 1267.43 -7.72269 1743.88 -82.1773" stroke="#29ADC5" stroke-width="0.388211"/>
<path d="M1289.84 334.773C1245.25 224.062 1274.76 -13.4594 1749.51 -77.8508" stroke="#29ADC5" stroke-width="0.388211"/>
<path d="M1271.38 334.629C1235.6 221.381 1282.12 -18.6724 1754.46 -72.9038" stroke="#29ADC5" stroke-width="0.388211"/>
<path d="M1252.91 334.482C1225.99 218.869 1289.46 -23.3559 1758.67 -67.3457" stroke="#29ADC5" stroke-width="0.388211"/>
<path d="M1234.44 334.338C1216.42 216.532 1296.74 -27.4994 1762.12 -61.1815" stroke="#29ADC5" stroke-width="0.388211"/>
<path d="M1215.97 334.189C1206.89 214.369 1303.94 -31.1024 1764.79 -54.4261" stroke="#29ADC5" stroke-width="0.388211"/>
<path d="M1197.5 334.045C1197.36 212.39 1310.99 -34.1522 1766.62 -47.0823" stroke="#29ADC5" stroke-width="0.388211"/>
<path d="M1179.03 333.9C1187.83 210.594 1317.87 -36.6481 1767.59 -39.1654" stroke="#29ADC5" stroke-width="0.388211"/>
<path d="M1160.57 333.754C1178.3 208.981 1324.55 -38.5886 1767.69 -30.6891" stroke="#29ADC5" stroke-width="0.388211"/>
<path d="M1142.1 333.607C1168.74 207.557 1330.98 -39.9691 1766.87 -21.6648" stroke="#29ADC5" stroke-width="0.388211"/>
<path d="M1123.63 333.467C1159.13 206.327 1337.13 -40.7819 1765.11 -12.1003" stroke="#29ADC5" stroke-width="0.388211"/>
<path d="M1105.16 333.318C1149.47 205.281 1342.95 -41.0395 1762.38 -2.02373" stroke="#29ADC5" stroke-width="0.388211"/>
<path d="M1086.69 333.17C1139.74 204.428 1348.42 -40.734 1758.67 8.55733" stroke="#29ADC5" stroke-width="0.388211"/>
<path d="M1068.22 333.023C1129.94 203.77 1353.5 -39.8642 1753.95 19.6284" stroke="#29ADC5" stroke-width="0.388211"/>
<path d="M1049.76 332.881C1120.05 203.31 1358.14 -38.4297 1748.19 31.1748" stroke="#29ADC5" stroke-width="0.388211"/>
<path d="M1031.29 332.736C1110.04 203.044 1362.32 -36.4386 1741.39 43.173" stroke="#29ADC5" stroke-width="0.388211"/>
<path d="M1012.82 332.59C1099.92 202.97 1366.01 -33.8943 1733.51 55.6048" stroke="#29ADC5" stroke-width="0.388211"/>
<path d="M994.352 332.445C1089.67 203.094 1369.16 -30.7967 1724.56 68.4552" stroke="#29ADC5" stroke-width="0.388211"/>
<path d="M975.889 332.299C1079.28 203.41 1371.75 -27.1547 1714.5 81.7007" stroke="#29ADC5" stroke-width="0.388211"/>
<path d="M957.424 332.152C1068.73 203.92 1373.75 -22.9722 1703.34 95.3231" stroke="#29ADC5" stroke-width="0.388211"/>
<path d="M938.953 332.01C1058.01 204.626 1375.11 -18.2515 1691.05 109.306" stroke="#29ADC5" stroke-width="0.388211"/>
<path d="M920.482 331.863C1047.11 205.521 1375.82 -13.0078 1677.63 123.619" stroke="#29ADC5" stroke-width="0.388211"/>
<path d="M902.023 331.717C1036.03 206.605 1375.86 -7.24555 1663.08 138.246" stroke="#29ADC5" stroke-width="0.388211"/>
<path d="M883.553 331.574C1024.74 207.882 1375.17 -0.969548 1647.37 153.168" stroke="#29ADC5" stroke-width="0.388211"/>
<path d="M865.088 331.426C1013.24 209.338 1373.75 5.80085 1630.52 168.352" stroke="#29ADC5" stroke-width="0.388211"/>
<path d="M846.613 331.281C1001.51 210.982 1371.55 13.0649 1612.51 183.785" stroke="#29ADC5" stroke-width="0.388211"/>
<path d="M828.143 331.137C989.551 212.808 1368.57 20.8076 1593.35 199.441" stroke="#29ADC5" stroke-width="0.388211"/>
<path d="M809.678 330.992C977.354 214.811 1364.78 29.017 1573.05 215.294" stroke="#29ADC5" stroke-width="0.388211"/>
<path d="M791.221 330.842C964.913 216.983 1360.16 37.6747 1551.6 231.315" stroke="#29ADC5" stroke-width="0.388211"/>
<path d="M772.748 330.699C952.194 219.334 1354.67 46.7813 1529 247.494" stroke="#29ADC5" stroke-width="0.388211"/>
<path d="M754.279 330.553C939.21 221.849 1348.31 56.311 1505.26 263.795" stroke="#29ADC5" stroke-width="0.388211"/>
<path d="M735.805 330.412C925.941 224.533 1341.05 66.259 1480.39 280.201" stroke="#29ADC5" stroke-width="0.388211"/>
<path d="M717.336 330.264C912.393 227.368 1332.89 76.5965 1454.41 296.675" stroke="#29ADC5" stroke-width="0.388211"/>
<path d="M698.867 330.119C898.551 230.362 1323.8 87.3195 1427.31 313.204" stroke="#29ADC5" stroke-width="0.388211"/>
<path d="M680.4 329.973C884.41 233.504 1313.77 98.4056 1399.12 329.756" stroke="#29ADC5" stroke-width="0.388211"/>
<path d="M661.934 329.828C869.963 236.794 1302.79 109.842 1369.85 346.311" stroke="#29ADC5" stroke-width="0.388211"/>
<path d="M643.467 329.686C855.203 240.225 1290.84 121.611 1339.52 362.842" stroke="#29ADC5" stroke-width="0.388211"/>
<path d="M624.996 329.539C840.121 243.787 1277.92 133.69 1308.13 379.32" stroke="#29ADC5" stroke-width="0.388211"/>
<path d="M606.537 329.395C824.726 247.48 1264.03 146.065 1275.73 395.725" stroke="#29ADC5" stroke-width="0.388211"/>
<path d="M588.066 329.248C808.992 251.294 1249.14 158.713 1242.31 412.028" stroke="#29ADC5" stroke-width="0.388211"/>
<path d="M569.6 329.104C792.929 255.227 1233.25 171.62 1207.91 428.209" stroke="#29ADC5" stroke-width="0.388211"/>
<path d="M551.133 328.961C776.531 259.273 1216.37 184.766 1172.55 444.242" stroke="#29ADC5" stroke-width="0.388211"/>
<path d="M532.662 328.814C759.79 263.42 1198.49 198.125 1136.25 460.098" stroke="#29ADC5" stroke-width="0.388211"/>
<path d="M514.199 328.668C742.714 267.666 1179.61 211.681 1099.06 475.757" stroke="#29ADC5" stroke-width="0.388211"/>
<path d="M495.727 328.521C725.286 272.003 1155.5 230.502 1063.5 478.002" stroke="#29ADC5" stroke-width="0.388211"/>
<path d="M477.262 328.377C707.519 276.427 1097.5 255.502 1021.5 456.502" stroke="#29ADC5" stroke-width="0.388211"/>
<path d="M458.824 326.102C689.009 294.909 1116.25 279.038 983.745 465.097" stroke="#29ADC5" stroke-width="0.388211"/>
<path d="M440.365 325.855C670.593 297.957 1093.51 288.728 943.337 474.996" stroke="#29ADC5" stroke-width="0.388211"/>
<path d="M421.895 325.604C651.819 301.042 1070.61 294.805 903.002 481.002" stroke="#29ADC5" stroke-width="0.388211"/>
<path d="M403.436 325.354C632.711 304.165 1015 312.502 859.502 478.004" stroke="#29ADC5" stroke-width="0.388211"/>
<path d="M384.973 325.104C613.254 307.321 984.504 325.105 815.504 477.502" stroke="#29ADC5" stroke-width="0.388211"/>
<path d="M395.432 325.92C594.304 316.743 923.32 316.081 748.506 477.004" stroke="#29ADC5" stroke-width="0.388211"/>
<path d="M348.055 324.881C573.141 320.758 965.173 339.26 732.606 446.248" stroke="#29ADC5" stroke-width="0.388211"/>
<path d="M329.598 324.539C552.704 322.469 936.792 344.817 688.292 450.762" stroke="#29ADC5" stroke-width="0.388211"/>
<path d="M311.209 324.613C532 324.6 907.567 350.759 643.507 455.502" stroke="#29ADC5" stroke-width="0.388211"/>
<path d="M296.507 325.504C514.651 327.547 877.297 355.823 598.075 459.207" stroke="#29ADC5" stroke-width="0.388211"/>
<path d="M278.121 325.467C492.501 329.167 847.46 361.88 552.256 463.127" stroke="#29ADC5" stroke-width="0.388211"/>
<path d="M260.309 325.777C471.257 331.393 815.727 367.466 506.015 466.836" stroke="#29ADC5" stroke-width="0.388211"/>
<path d="M243.396 326.879C450.414 334.242 783.441 373.241 459.401 470.335" stroke="#29ADC5" stroke-width="0.388211"/>
<path d="M223.875 326.414C427.175 335.826 749.513 378.441 412.458 473.605" stroke="#29ADC5" stroke-width="0.388211"/>
<path d="M205.004 326.477C404.149 337.817 714.997 383.729 365.225 476.653" stroke="#29ADC5" stroke-width="0.388211"/>
<path d="M185.105 325.502C380 338.961 679.379 388.595 317.737 479.463" stroke="#29ADC5" stroke-width="0.388211"/>
</g>
</g>
<defs>
<filter id="filter0_f_1359_63815" x="161.119" y="-100.727" width="1612.39" height="588.717" filterUnits="userSpaceOnUse" color-interpolation-filters="sRGB">
<feFlood flood-opacity="0" result="BackgroundImageFix"/>
<feBlend mode="normal" in="SourceGraphic" in2="BackgroundImageFix" result="shape"/>
<feGaussianBlur stdDeviation="2.89568" result="effect1_foregroundBlur_1359_63815"/>
</filter>
<clipPath id="clip0_1359_63815">
<rect width="1440" height="326" fill="white"/>
</clipPath>
</defs>
</svg>
