<svg width="200" height="192" viewBox="0 0 200 192" fill="none" xmlns="http://www.w3.org/2000/svg">
<path style="mix-blend-mode:color-dodge" d="M29.9992 21C30.5515 21 30.9992 20.5522 30.9992 20C30.9992 19.4477 30.5515 19 29.9992 19C29.447 19 28.9993 19.4477 28.9993 20C28.9993 20.5522 29.447 21 29.9992 21Z" fill="url(#paint0_radial_687_51079)"/>
<path opacity="0.988792" d="M159.996 35.749C160.411 35.749 160.746 35.4132 160.746 34.999C160.746 34.5848 160.411 34.249 159.996 34.249C159.582 34.249 159.246 34.5848 159.246 34.999C159.246 35.4132 159.582 35.749 159.996 35.749Z" fill="#60A5FA"/>
<path opacity="0.330868" d="M149.997 140.997C150.549 140.997 150.997 140.549 150.997 139.997C150.997 139.445 150.549 138.997 149.997 138.997C149.444 138.997 148.997 139.445 148.997 139.997C148.997 140.549 149.444 140.997 149.997 140.997Z" fill="#60A5FA"/>
<path style="mix-blend-mode:color-dodge" d="M169.996 100.748C170.41 100.748 170.746 100.412 170.746 99.998C170.746 99.5838 170.41 99.248 169.996 99.248C169.582 99.248 169.246 99.5838 169.246 99.998C169.246 100.412 169.582 100.748 169.996 100.748Z" fill="url(#paint1_radial_687_51079)"/>
<path style="mix-blend-mode:color-dodge" d="M19.9996 90.8976C20.4966 90.8976 20.8996 90.4947 20.8996 89.9976C20.8996 89.5006 20.4966 89.0977 19.9996 89.0977C19.5025 89.0977 19.0996 89.5006 19.0996 89.9976C19.0996 90.4947 19.5025 90.8976 19.9996 90.8976Z" fill="url(#paint2_radial_687_51079)"/>
<path d="M99.9977 20C99.9977 20 92.4979 22.4999 89.9979 29.9998L84.998 99.9982H114.997L109.997 29.9998C107.498 22.4999 99.9977 20 99.9977 20Z" fill="url(#paint3_linear_687_51079)" stroke="#FBBF24" stroke-width="1.24997" stroke-linejoin="round"/>
<path d="M95.9978 29.9993C96.9978 26.666 97.9978 25.8327 98.9977 27.4993L97.4978 89.9979" stroke="white" stroke-opacity="0.3" stroke-width="1.49997" stroke-linecap="round"/>
<path opacity="0.9" d="M99.9977 21.9999C102.759 21.9999 104.998 20.6567 104.998 18.9999C104.998 17.3431 102.759 16 99.9977 16C97.2363 16 94.9978 17.3431 94.9978 18.9999C94.9978 20.6567 97.2363 21.9999 99.9977 21.9999Z" fill="#FBBF24"/>
<path d="M99.9977 12.5C98.3311 14.1666 97.1645 16.3332 96.4978 18.9999H103.498C102.831 16.3332 101.664 14.1666 99.9977 12.5Z" fill="url(#paint4_linear_687_51079)" stroke="#FBBF24" stroke-width="0.749983"/>
<path d="M99.9976 51.4986C104.968 51.4986 108.997 47.4693 108.997 42.4988C108.997 37.5284 104.968 33.499 99.9976 33.499C95.0271 33.499 90.9978 37.5284 90.9978 42.4988C90.9978 47.4693 95.0271 51.4986 99.9976 51.4986Z" fill="#0A0A0F" stroke="#60A5FA" stroke-width="1.24997"/>
<path d="M99.9976 49.4987C103.864 49.4987 106.997 46.3648 106.997 42.4989C106.997 38.633 103.864 35.499 99.9976 35.499C96.1317 35.499 92.9978 38.633 92.9978 42.4989C92.9978 46.3648 96.1317 49.4987 99.9976 49.4987Z" fill="url(#paint5_radial_687_51079)"/>
<path d="M99.9977 43.9989C102.207 43.9989 103.998 42.6558 103.998 40.999C103.998 39.3421 102.207 37.999 99.9977 37.999C97.7886 37.999 95.9978 39.3421 95.9978 40.999C95.9978 42.6558 97.7886 43.9989 99.9977 43.9989Z" fill="#93C5FD" fill-opacity="0.5"/>
<path d="M96.9978 40.999C97.8262 40.999 98.4977 40.3274 98.4977 39.499C98.4977 38.6706 97.8262 37.999 96.9978 37.999C96.1694 37.999 95.4978 38.6706 95.4978 39.499C95.4978 40.3274 96.1694 40.999 96.9978 40.999Z" fill="white" fill-opacity="0.7"/>
<path d="M92.4977 68.9988C94.7068 68.9988 96.4976 67.208 96.4976 64.9989C96.4976 62.7898 94.7068 60.999 92.4977 60.999C90.2886 60.999 88.4978 62.7898 88.4978 64.9989C88.4978 67.208 90.2886 68.9988 92.4977 68.9988Z" fill="#0A0A0F" stroke="#FBBF24" stroke-width="0.749983"/>
<path opacity="0.4" d="M92.4977 67.4989C93.8784 67.4989 94.9977 66.3796 94.9977 64.999C94.9977 63.6183 93.8784 62.499 92.4977 62.499C91.1171 62.499 89.9978 63.6183 89.9978 64.999C89.9978 66.3796 91.1171 67.4989 92.4977 67.4989Z" fill="#60A5FA"/>
<path d="M107.497 68.9988C109.707 68.9988 111.497 67.208 111.497 64.9989C111.497 62.7898 109.707 60.999 107.497 60.999C105.288 60.999 103.498 62.7898 103.498 64.9989C103.498 67.208 105.288 68.9988 107.497 68.9988Z" fill="#0A0A0F" stroke="#FBBF24" stroke-width="0.749983"/>
<path opacity="0.4" d="M107.497 67.4989C108.878 67.4989 109.997 66.3796 109.997 64.999C109.997 63.6183 108.878 62.499 107.497 62.499C106.117 62.499 104.997 63.6183 104.997 64.999C104.997 66.3796 106.117 67.4989 107.497 67.4989Z" fill="#60A5FA"/>
<path opacity="0.4" d="M87.4978 54.999H112.497" stroke="#FBBF24" stroke-width="0.499989"/>
<path opacity="0.4" d="M85.998 77.498H113.997" stroke="#FBBF24" stroke-width="0.499989"/>
<path opacity="0.5" d="M99.9975 27.5L98.9976 97.4984" stroke="#FBBF24" stroke-width="0.999977"/>
<path d="M84.9979 79.998C79.9981 84.9979 74.9982 90.8311 69.9983 97.4976V109.997C71.6649 108.331 74.9982 106.664 79.9981 104.997L84.9979 94.9977V79.998Z" fill="url(#paint6_linear_687_51079)" stroke="#FBBF24" stroke-width="1.24997" stroke-linejoin="round"/>
<path opacity="0.6" d="M82.4981 84.998C79.1648 88.3313 76.3316 92.4979 73.9983 97.4978" stroke="#60A5FA" stroke-width="0.749983"/>
<path d="M114.997 79.998C119.997 84.9979 124.997 90.8311 129.997 97.4976V109.997C128.33 108.331 124.997 106.664 119.997 104.997L114.997 94.9977V79.998Z" fill="url(#paint7_linear_687_51079)" stroke="#FBBF24" stroke-width="1.24997" stroke-linejoin="round"/>
<path opacity="0.6" d="M117.497 84.998C120.831 88.3313 123.664 92.4979 125.997 97.4978" stroke="#60A5FA" stroke-width="0.749983"/>
<path d="M115.497 99.998H84.498C83.3935 99.998 82.498 100.893 82.498 101.998V110.498C82.498 111.602 83.3935 112.498 84.498 112.498H115.497C116.602 112.498 117.497 111.602 117.497 110.498V101.998C117.497 100.893 116.602 99.998 115.497 99.998Z" fill="#2563EB" stroke="#FBBF24" stroke-width="0.999977"/>
<path d="M92.4977 109.998H88.4978C87.9455 109.998 87.4978 110.446 87.4978 110.998V112.998C87.4978 113.55 87.9455 113.998 88.4978 113.998H92.4977C93.05 113.998 93.4977 113.55 93.4977 112.998V110.998C93.4977 110.446 93.05 109.998 92.4977 109.998Z" fill="#0A0A0F" stroke="#60A5FA" stroke-width="0.749983"/>
<path d="M101.998 109.998H97.9978C97.4455 109.998 96.9978 110.446 96.9978 110.998V112.998C96.9978 113.55 97.4455 113.998 97.9978 113.998H101.998C102.55 113.998 102.998 113.55 102.998 112.998V110.998C102.998 110.446 102.55 109.998 101.998 109.998Z" fill="#0A0A0F" stroke="#60A5FA" stroke-width="0.749983"/>
<path d="M111.497 109.998H107.498C106.945 109.998 106.498 110.446 106.498 110.998V112.998C106.498 113.55 106.945 113.998 107.498 113.998H111.497C112.05 113.998 112.497 113.55 112.497 112.998V110.998C112.497 110.446 112.05 109.998 111.497 109.998Z" fill="#0A0A0F" stroke="#60A5FA" stroke-width="0.749983"/>
<path opacity="0.6" d="M90.4978 106.498C91.3262 106.498 91.9977 105.826 91.9977 104.998C91.9977 104.17 91.3262 103.498 90.4978 103.498C89.6694 103.498 88.9978 104.17 88.9978 104.998C88.9978 105.826 89.6694 106.498 90.4978 106.498Z" fill="#FBBF24"/>
<path opacity="0.6" d="M99.9975 106.498C100.826 106.498 101.497 105.826 101.497 104.998C101.497 104.17 100.826 103.498 99.9975 103.498C99.1691 103.498 98.4976 104.17 98.4976 104.998C98.4976 105.826 99.1691 106.498 99.9975 106.498Z" fill="#FBBF24"/>
<path opacity="0.6" d="M109.498 106.498C110.326 106.498 110.997 105.826 110.997 104.998C110.997 104.17 110.326 103.498 109.498 103.498C108.669 103.498 107.998 104.17 107.998 104.998C107.998 105.826 108.669 106.498 109.498 106.498Z" fill="#FBBF24"/>
<g opacity="0.986056">
<path d="M99.4978 113.997C98.1645 121.33 98.3311 130.83 99.9977 142.496C101.664 130.83 101.831 121.33 100.498 113.997H99.4978Z" fill="url(#paint8_linear_687_51079)"/>
<path d="M99.4979 113.997C98.8312 118.664 98.9979 123.997 99.9979 129.997C100.998 123.997 101.165 118.664 100.498 113.997H99.4979Z" fill="url(#paint9_linear_687_51079)"/>
<path d="M89.998 113.997C88.6647 119.664 88.8314 126.663 90.498 134.997C91.8313 127.663 91.998 120.664 90.998 113.997H89.998Z" fill="url(#paint10_linear_687_51079)"/>
<path d="M89.9979 113.997C89.3312 117.33 89.4979 121.33 90.4979 125.997C91.1645 121.997 91.1645 117.997 90.4979 113.997H89.9979Z" fill="#FFD700" fill-opacity="0.8"/>
<path d="M109.998 113.997C111.331 119.664 111.164 126.663 109.498 134.997C108.164 127.663 107.998 120.664 108.998 113.997H109.998Z" fill="url(#paint11_linear_687_51079)"/>
<path d="M109.998 113.997C110.664 117.33 110.498 121.33 109.498 125.997C108.831 121.997 108.831 117.997 109.498 113.997H109.998Z" fill="#FFD700" fill-opacity="0.8"/>
</g>
<g opacity="0.748572">
<path opacity="0.7" d="M73.4984 109.997C72.8317 114.997 72.9984 119.664 73.9984 123.997C74.665 119.664 74.665 114.997 73.9984 109.997H73.4984Z" fill="url(#paint12_linear_687_51079)"/>
<path opacity="0.7" d="M126.497 109.997C127.164 114.997 126.997 119.664 125.997 123.997C125.33 119.664 125.33 114.997 125.997 109.997H126.497Z" fill="url(#paint13_linear_687_51079)"/>
</g>
<g opacity="0.517528">
<path opacity="0.15" d="M99.9976 152.497C105.52 152.497 109.997 150.258 109.997 147.497C109.997 144.736 105.52 142.497 99.9976 142.497C94.4749 142.497 89.9978 144.736 89.9978 147.497C89.9978 150.258 94.4749 152.497 99.9976 152.497Z" fill="#60A5FA"/>
<path opacity="0.1" d="M99.9977 164.497C107.73 164.497 113.997 161.363 113.997 157.497C113.997 153.631 107.73 150.497 99.9977 150.497C92.2659 150.497 85.998 153.631 85.998 157.497C85.998 161.363 92.2659 164.497 99.9977 164.497Z" fill="#FBBF24"/>
<path opacity="0.08" d="M99.9976 175.497C109.662 175.497 117.497 171.915 117.497 167.497C117.497 163.079 109.662 159.497 99.9976 159.497C90.3329 159.497 82.498 163.079 82.498 167.497C82.498 171.915 90.3329 175.497 99.9976 175.497Z" fill="#60A5FA"/>
</g>
<path opacity="0.474009" d="M94.9978 114.747C95.412 114.747 95.7478 114.411 95.7478 113.997C95.7478 113.583 95.412 113.247 94.9978 113.247C94.5836 113.247 94.2478 113.583 94.2478 113.997C94.2478 114.411 94.5836 114.747 94.9978 114.747Z" fill="#FBBF24"/>
<path opacity="0.981681" d="M96.9978 114.747C97.412 114.747 97.7478 114.411 97.7478 113.997C97.7478 113.583 97.412 113.247 96.9978 113.247C96.5836 113.247 96.2478 113.583 96.2478 113.997C96.2478 114.411 96.5836 114.747 96.9978 114.747Z" fill="#FFD700"/>
<path opacity="0.925858" d="M98.9978 114.747C99.412 114.747 99.7478 114.411 99.7478 113.997C99.7478 113.583 99.412 113.247 98.9978 113.247C98.5836 113.247 98.2478 113.583 98.2478 113.997C98.2478 114.411 98.5836 114.747 98.9978 114.747Z" fill="#FBBF24"/>
<path opacity="0.243029" d="M100.998 114.747C101.412 114.747 101.748 114.411 101.748 113.997C101.748 113.583 101.412 113.247 100.998 113.247C100.584 113.247 100.248 113.583 100.248 113.997C100.248 114.411 100.584 114.747 100.998 114.747Z" fill="#FFD700"/>
<path opacity="0.853788" d="M102.998 114.747C103.412 114.747 103.748 114.411 103.748 113.997C103.748 113.583 103.412 113.247 102.998 113.247C102.583 113.247 102.248 113.583 102.248 113.997C102.248 114.411 102.583 114.747 102.998 114.747Z" fill="#FBBF24"/>
<path opacity="0.546449" d="M104.998 114.747C105.412 114.747 105.748 114.411 105.748 113.997C105.748 113.583 105.412 113.247 104.998 113.247C104.583 113.247 104.248 113.583 104.248 113.997C104.248 114.411 104.583 114.747 104.998 114.747Z" fill="#FFD700"/>
<defs>
<radialGradient id="paint0_radial_687_51079" cx="0" cy="0" r="1" gradientUnits="userSpaceOnUse" gradientTransform="translate(29.9954 20.0091) rotate(23.86) scale(0.999535)">
<stop stop-color="#00F5F5"/>
<stop offset="0.02" stop-color="#00C7C7"/>
<stop offset="0.04" stop-color="#009C9C"/>
<stop offset="0.07" stop-color="#007777"/>
<stop offset="0.09" stop-color="#005656"/>
<stop offset="0.12" stop-color="#003B3B"/>
<stop offset="0.15" stop-color="#002525"/>
<stop offset="0.19" stop-color="#001414"/>
<stop offset="0.23" stop-color="#000808"/>
<stop offset="0.3" stop-color="#000101"/>
<stop offset="0.47"/>
</radialGradient>
<radialGradient id="paint1_radial_687_51079" cx="0" cy="0" r="1" gradientUnits="userSpaceOnUse" gradientTransform="translate(169.993 100.005) rotate(23.86) scale(0.749651)">
<stop stop-color="#00F5F5"/>
<stop offset="0.02" stop-color="#00C7C7"/>
<stop offset="0.04" stop-color="#009C9C"/>
<stop offset="0.07" stop-color="#007777"/>
<stop offset="0.09" stop-color="#005656"/>
<stop offset="0.12" stop-color="#003B3B"/>
<stop offset="0.15" stop-color="#002525"/>
<stop offset="0.19" stop-color="#001414"/>
<stop offset="0.23" stop-color="#000808"/>
<stop offset="0.3" stop-color="#000101"/>
<stop offset="0.47"/>
</radialGradient>
<radialGradient id="paint2_radial_687_51079" cx="0" cy="0" r="1" gradientTransform="matrix(0.822699 0.363884 -0.363883 0.822701 19.9961 90.0059)" gradientUnits="userSpaceOnUse">
<stop stop-color="#00F5F5"/>
<stop offset="0.02" stop-color="#00C7C7"/>
<stop offset="0.04" stop-color="#009C9C"/>
<stop offset="0.07" stop-color="#007777"/>
<stop offset="0.09" stop-color="#005656"/>
<stop offset="0.12" stop-color="#003B3B"/>
<stop offset="0.15" stop-color="#002525"/>
<stop offset="0.19" stop-color="#001414"/>
<stop offset="0.23" stop-color="#000808"/>
<stop offset="0.3" stop-color="#000101"/>
<stop offset="0.47"/>
</radialGradient>
<linearGradient id="paint3_linear_687_51079" x1="5184.88" y1="4819.89" x2="11754.6" y2="10568.4" gradientUnits="userSpaceOnUse">
<stop/>
<stop offset="0.4"/>
<stop offset="1"/>
</linearGradient>
<linearGradient id="paint4_linear_687_51079" x1="1496.47" y1="174.996" x2="1496.47" y2="259.494" gradientUnits="userSpaceOnUse">
<stop stop-color="#FFD700"/>
<stop offset="1"/>
</linearGradient>
<radialGradient id="paint5_radial_687_51079" cx="0" cy="0" r="1" gradientUnits="userSpaceOnUse" gradientTransform="translate(2892.93 1225.47) scale(6.99984)">
<stop stop-color="#93C5FD" stop-opacity="0.6"/>
<stop offset="1" stop-color="#3B82F6" stop-opacity="0.3"/>
</radialGradient>
<linearGradient id="paint6_linear_687_51079" x1="69.9983" y1="79.998" x2="2469.94" y2="1279.97" gradientUnits="userSpaceOnUse">
<stop stop-opacity="0.9"/>
<stop offset="0.5" stop-opacity="0.8"/>
<stop offset="1" stop-opacity="0.7"/>
</linearGradient>
<linearGradient id="paint7_linear_687_51079" x1="114.997" y1="79.998" x2="2514.94" y2="1279.97" gradientUnits="userSpaceOnUse">
<stop stop-opacity="0.9"/>
<stop offset="0.5" stop-opacity="0.8"/>
<stop offset="1" stop-opacity="0.7"/>
</linearGradient>
<linearGradient id="paint8_linear_687_51079" x1="654.152" y1="6611.85" x2="654.152" y2="8236.31" gradientUnits="userSpaceOnUse">
<stop stop-color="#FFD700" stop-opacity="0.95"/>
<stop offset="0.3" stop-color="#FFA500" stop-opacity="0.85"/>
<stop offset="0.7" stop-color="#FF4500" stop-opacity="0.6"/>
<stop offset="1" stop-color="#FF0000" stop-opacity="0.3"/>
</linearGradient>
<linearGradient id="paint9_linear_687_51079" x1="459.09" y1="3761.91" x2="459.09" y2="4273.9" gradientUnits="userSpaceOnUse">
<stop stop-color="white" stop-opacity="0.9"/>
<stop offset="0.5" stop-color="#FFFFC8" stop-opacity="0.7"/>
<stop offset="1" stop-color="#FFD700" stop-opacity="0.5"/>
</linearGradient>
<linearGradient id="paint10_linear_687_51079" x1="89.1091" y1="4901.89" x2="89.1091" y2="5783.87" gradientUnits="userSpaceOnUse">
<stop stop-color="#FFC800" stop-opacity="0.85"/>
<stop offset="0.5" stop-color="#FF8C00" stop-opacity="0.6"/>
<stop offset="1" stop-color="#FF4500" stop-opacity="0.3"/>
</linearGradient>
<linearGradient id="paint11_linear_687_51079" x1="108.355" y1="4901.89" x2="108.355" y2="5783.87" gradientUnits="userSpaceOnUse">
<stop stop-color="#FFC800" stop-opacity="0.85"/>
<stop offset="0.5" stop-color="#FF8C00" stop-opacity="0.6"/>
<stop offset="1" stop-color="#FF4500" stop-opacity="0.3"/>
</linearGradient>
<linearGradient id="paint12_linear_687_51079" x1="73.0984" y1="3189.93" x2="73.0984" y2="3581.92" gradientUnits="userSpaceOnUse">
<stop stop-color="#FFD700" stop-opacity="0.9"/>
<stop offset="1" stop-color="#FF6400" stop-opacity="0.4"/>
</linearGradient>
<linearGradient id="paint13_linear_687_51079" x1="125.497" y1="3189.93" x2="125.497" y2="3581.92" gradientUnits="userSpaceOnUse">
<stop stop-color="#FFD700" stop-opacity="0.9"/>
<stop offset="1" stop-color="#FF6400" stop-opacity="0.4"/>
</linearGradient>
</defs>
</svg>
